<svg width="1322" height="403" viewBox="0 0 1322 403" fill="none" xmlns="http://www.w3.org/2000/svg">
<path d="M143.777 69.7286C162.197 60.7751 182.436 55.0487 203.001 54.7794C214.767 54.8066 227.07 56.6532 237.072 63.2861C230.372 64.4041 223.589 65.1867 216.8 65.1778C194.435 54.7626 168.646 61.2365 146.986 70.3901C148.423 73.2775 150.16 76.0286 152.306 78.4513C162.166 74.019 173.736 70.596 184.283 74.704C189.114 76.3559 191.175 82.2951 188.668 86.6917C183.318 96.7464 172.184 101.723 161.88 105.147C160.351 121.096 156.874 136.753 153.099 152.3C152.395 154.77 151.848 157.4 150.409 159.596C138.864 161.313 126.842 160.719 115.634 157.323C107.545 154.745 99.6439 150.059 95.2126 142.591C93.639 140.704 93.5613 138.751 94.9967 136.766C98.5149 130.573 104.068 125.956 109.375 121.388C116.633 134.173 132.329 137.387 145.914 136.895C149.242 126.812 152.359 116.637 155.512 106.498C148.629 106.875 141.229 106.558 135.882 101.592C120.283 110.076 105.715 120.245 91.5967 130.984C91.6851 113.696 103.166 99.208 115.563 88.3569C122.503 82.7044 129.554 76.6666 138.162 73.7291C125.484 84.5586 109.812 95.7148 108.303 113.933C117.063 108.939 125.841 103.964 134.977 99.6973C134.967 90.5334 142.479 84.2735 149.698 80.0322C147.352 76.8151 145.326 73.3916 143.777 69.7286ZM165.815 78.4154C162.124 83.1293 156.375 84.2081 150.789 84.9198C155.601 87.9258 160.905 84.7828 165.504 82.9313C162.489 85.9311 158.656 88.3036 156.474 92.0716C159.223 91.6887 161.906 91.0586 164.623 90.4818C165.322 89.542 166.721 87.6624 167.42 86.7226L163.516 87.9333C165.416 85.4276 167.002 82.7416 168.501 80.0016C167.594 79.461 166.687 78.9204 165.815 78.4154ZM168.139 84.3936C169.521 86.1722 170.885 87.9505 172.266 89.7643C168.272 94.7904 160.164 99.7226 154.543 94.2954C152.486 94.2133 150.411 94.1485 148.353 94.1719C156.271 105.049 177.628 96.1551 175.756 83.1128C173.17 83.1462 170.613 83.5846 168.139 84.3936Z" fill="white"/>
<path d="M269.91 69.4009C280.897 72.284 291.826 77.998 297.821 88.0564C306.135 100.769 304.825 117.389 298.882 130.794C289.537 152.102 272.1 168.58 253.546 181.999C256.316 204.816 257.342 227.854 256.609 250.832C229.896 264.117 201.363 274.228 171.672 278.025C153.011 280.45 133.837 280.633 115.392 276.553C107.945 275.814 105.585 267.426 104.512 261.254C103.712 258.147 105.02 255.194 106.151 252.395C149.536 262.653 195.154 252.118 234.986 234.025C235.285 214.33 234.442 194.531 230.761 175.148C230.578 171.997 228.407 167.604 232.335 165.972C249.702 154.382 266.243 140.301 276.253 121.642C282.126 110.662 285.378 97.2183 280.889 85.1588C278.815 78.9204 274.169 74.1755 269.91 69.4009Z" fill="white"/>
<path d="M172.543 131.964C194.511 123.36 218.558 109.632 225.063 85.171C233.524 85.0631 242.285 86.1731 249.644 90.6401C245.369 110.419 229.89 125.289 213.728 136.227C199.45 145.821 183.417 152.627 166.788 156.91C168.946 148.639 170.455 140.236 172.543 131.964Z" fill="white"/>
<path d="M326.286 146.751C330.902 132.658 329.019 116.731 320.611 104.44C330.257 116.274 341.155 129.023 342.053 145.006C343.404 166.202 332.394 185.868 319.293 201.704C307.447 215.905 293.066 227.748 277.758 238.012C277.611 228.6 277.042 219.2 276.032 209.846C297.669 193.639 318.047 173.14 326.286 146.751Z" fill="white"/>
<path d="M78.2882 134.259C74.9152 143.832 72.0406 154.221 75.0101 164.289C77.2712 173.468 84.0993 180.6 91.6936 185.81C88.3412 192.709 85.3031 199.772 82.1602 206.78C74.0599 200.051 67.5076 190.847 66.3233 180.171C64.2513 163.907 71.9436 148.697 78.2882 134.259Z" fill="white"/>
<path d="M107.025 192.413C141.969 201.355 178.892 192.419 210.99 177.751C212.467 186.408 213.362 195.162 214.099 203.932C180.638 217.965 142.989 226.011 106.976 218.022C100.605 234.323 95.4405 251.1 92.924 268.441C81.2457 262.242 70.8869 252.315 67.0085 239.384C64.5201 230.115 63.1262 220.562 62.2423 211.016C64.8057 224.895 73.8363 236.685 85.7992 243.891C90.9434 226.059 97.667 208.479 107.025 192.413Z" fill="white"/>
<path d="M354.173 186.777C358.743 199.312 356.907 213.375 351.285 225.272C340.32 249.177 320.513 267.767 299.283 282.625C274.342 299.876 246.131 312.154 216.775 319.545C215.451 328.496 214.074 337.499 214.419 346.598C201.419 347.942 188.173 348.087 175.355 345.319C164.697 342.828 154.41 338.952 144.449 334.413C162.102 341.049 181.218 342.465 199.885 340.85C200.258 329.475 200.949 318.07 202.289 306.762C202.593 303.952 205.971 303.842 208.057 303.098C236.666 296.242 264.062 284.427 288.739 268.404C318.055 249.018 346.452 222.477 354.173 186.777Z" fill="white"/>
<path d="M299.818 304.302C320.508 290.316 339.427 272.293 349.608 249.099C343.539 265.194 336.029 281.198 323.855 293.653C300.663 317.823 269.796 333.722 237.628 342.25C233.158 343.664 226.843 343.662 224.575 338.722C226.161 336.019 229.558 335.821 232.227 334.927C256.408 329.01 279.183 318.096 299.818 304.302Z" fill="white"/>
<path d="M86.9158 283.938C93.7972 291.037 101.818 297.149 111.234 300.432C135.678 309.364 162.544 311.243 188.144 306.982C187.585 312.849 187.167 318.735 186.784 324.622C163.714 326.614 139.315 325.651 118.273 314.99C104.683 308.394 95.558 295.829 86.9158 283.938Z" fill="white"/>
<path d="M162.427 5.21573C197.888 5.0887 233.327 4.04673 268.772 3.76117C272.467 3.6732 275.367 6.28257 278.277 8.20609C309.702 30.7812 340.947 53.6352 372.481 76.0359C378.373 85.8642 380.779 97.2608 384.725 107.923C394.389 134.444 403.223 161.252 412.817 187.79C414.354 192.226 416.291 197.038 414.43 201.708C402.628 239.918 390.983 278.183 379.408 316.484C378.573 319.533 376.932 322.376 374.355 324.292C346.341 344.893 318.637 365.973 290.795 386.841C285.092 390.84 279.731 396.743 272.222 396.671C232.813 397.375 193.39 397.815 153.983 398.466C149.372 398.647 144.563 397.874 140.84 395.007C109.133 372.481 77.2099 350.268 45.3945 327.916C40.359 324.572 39.2172 318.312 37.4109 313.01C25.9347 277.862 14.7059 242.63 3.2827 207.465C2.10295 203.86 3.08944 200.058 4.15932 196.573C14.355 163.704 24.2528 130.761 34.2033 97.8191C36.3164 91.4822 36.9891 83.788 43.1484 79.8657C75.0578 56.207 106.449 31.8727 138.151 7.94724C139.822 6.75746 141.463 5.12755 143.726 5.5468C149.953 5.49498 156.197 5.51375 162.427 5.21573ZM143.777 69.7286C145.326 73.3916 147.352 76.8151 149.698 80.0322C142.479 84.2735 134.967 90.5334 134.977 99.6973C125.841 103.964 117.063 108.939 108.303 113.933C109.812 95.7148 125.484 84.5586 138.162 73.7291C129.554 76.6666 122.503 82.7044 115.563 88.3569C103.166 99.208 91.6851 113.696 91.5967 130.984C105.715 120.245 120.283 110.076 135.882 101.592C141.229 106.558 148.629 106.875 155.512 106.498C152.359 116.637 149.242 126.812 145.914 136.895C132.329 137.387 116.633 134.173 109.375 121.388C104.068 125.956 98.5149 130.573 94.9967 136.766C93.5613 138.751 93.639 140.704 95.2126 142.591C99.6439 150.059 107.545 154.745 115.634 157.323C126.842 160.719 138.864 161.313 150.409 159.596C151.848 157.4 152.395 154.77 153.099 152.3C156.874 136.753 160.351 121.096 161.88 105.147C172.184 101.723 183.318 96.7464 188.668 86.6917C191.175 82.2951 189.114 76.3559 184.283 74.704C173.736 70.596 162.166 74.0189 152.306 78.4513C150.16 76.0286 148.423 73.2775 146.986 70.39C168.646 61.2365 194.435 54.7626 216.8 65.1777C223.589 65.1867 230.372 64.4041 237.072 63.2861C227.07 56.6531 214.767 54.8066 203.001 54.7794C182.436 55.0487 162.197 60.7751 143.777 69.7286ZM269.91 69.4008C274.169 74.1754 278.815 78.9202 280.889 85.1587C285.378 97.2182 282.126 110.662 276.253 121.642C266.242 140.301 249.702 154.382 232.334 165.972C228.406 167.604 230.577 171.997 230.761 175.148C234.442 194.53 235.285 214.33 234.986 234.025C195.154 252.118 149.536 262.653 106.151 252.395C105.02 255.193 103.712 258.147 104.512 261.254C105.585 267.426 107.945 275.814 115.392 276.553C133.837 280.633 153.011 280.45 171.672 278.025C201.363 274.228 229.896 264.117 256.609 250.832C257.342 227.854 256.316 204.816 253.546 181.999C272.1 168.579 289.537 152.102 298.882 130.794C304.825 117.389 306.135 100.768 297.821 88.0563C291.826 77.9979 280.897 72.2839 269.91 69.4008ZM172.543 131.963C170.455 140.236 168.946 148.639 166.788 156.91C183.417 152.627 199.45 145.82 213.728 136.227C229.89 125.289 245.369 110.419 249.644 90.64C242.285 86.173 233.524 85.063 225.063 85.1709C218.558 109.632 194.511 123.36 172.543 131.963ZM326.286 146.751C318.047 173.14 297.668 193.639 276.032 209.846C277.041 219.2 277.611 228.6 277.758 238.012C293.066 227.748 307.447 215.905 319.293 201.704C332.394 185.868 343.404 166.203 342.053 145.007C341.155 129.023 330.256 116.274 320.611 104.44C329.019 116.731 330.902 132.658 326.286 146.751ZM78.2881 134.259C71.9435 148.697 64.2512 163.907 66.3232 180.171C67.5075 190.846 74.0599 200.051 82.1601 206.78C85.303 199.771 88.3411 192.709 91.6935 185.809C84.0992 180.6 77.2711 173.467 75.01 164.289C72.0405 154.221 74.9151 143.832 78.2881 134.259ZM107.025 192.413C97.6667 208.478 90.9432 226.059 85.799 243.891C73.836 236.685 64.8054 224.894 62.2421 211.016C63.126 220.561 64.5199 230.114 67.0083 239.384C70.8867 252.314 81.2454 262.241 92.9238 268.441C95.4402 251.099 100.605 234.323 106.976 218.021C142.989 226.01 180.638 217.965 214.098 203.931C213.362 195.162 212.467 186.407 210.99 177.75C178.892 192.418 141.969 201.354 107.025 192.413ZM354.173 186.777C346.452 222.477 318.055 249.018 288.739 268.404C264.062 284.427 236.666 296.242 208.057 303.098C205.971 303.842 202.592 303.952 202.288 306.762C200.949 318.07 200.258 329.475 199.885 340.85C181.218 342.466 162.101 341.049 144.449 334.413C154.41 338.952 164.697 342.828 175.355 345.319C188.173 348.088 201.419 347.943 214.419 346.598C214.074 337.5 215.451 328.496 216.775 319.545C246.13 312.155 274.342 299.876 299.283 282.626C320.513 267.767 340.32 249.177 351.285 225.272C356.907 213.375 358.743 199.312 354.173 186.777ZM299.818 304.302C279.183 318.096 256.408 329.011 232.227 334.927C229.558 335.821 226.161 336.019 224.574 338.722C226.843 343.662 233.158 343.664 237.628 342.251C269.796 333.722 300.662 317.823 323.855 293.653C336.028 281.198 343.539 265.194 349.608 249.099C339.427 272.294 320.508 290.316 299.818 304.302ZM86.9159 283.939C95.5581 295.829 104.683 308.394 118.273 314.991C139.315 325.651 163.715 326.615 186.784 324.622C187.167 318.735 187.585 312.849 188.144 306.983C162.544 311.243 135.678 309.364 111.234 300.432C101.818 297.149 93.7973 291.037 86.9159 283.939Z" fill="#854EEB"/>
<path d="M165.815 78.4155C166.687 78.9204 167.594 79.461 168.501 80.0016C167.002 82.7417 165.416 85.4277 163.516 87.9333L167.42 86.7227C166.721 87.6625 165.322 89.5421 164.622 90.4819C161.906 91.0587 159.223 91.6888 156.474 92.0717C158.656 88.3037 162.489 85.9312 165.504 82.9314C160.905 84.7829 155.601 87.9259 150.789 84.9199C156.375 84.2082 162.124 83.1294 165.815 78.4155Z" fill="#854EEB"/>
<path d="M168.139 84.3932C170.613 83.5843 173.17 83.1459 175.756 83.1124C177.627 96.1548 156.271 105.049 148.353 94.1716C150.411 94.1482 152.486 94.2129 154.542 94.2951C160.164 99.7223 168.272 94.79 172.266 89.7639C170.885 87.9502 169.521 86.1718 168.139 84.3932Z" fill="#854EEB"/>
<path d="M919.655 90.0925C930.035 78.4943 947.008 75.704 961.857 77.8892C972.017 79.1499 981.888 84.3942 987.426 93.0845C992.047 99.8585 993.305 108.145 993.678 116.146C987.681 116.18 981.701 116.113 975.72 116.247C975.313 110.599 974.412 104.498 970.352 100.178C963.981 93.2358 953.328 92.4458 944.63 94.5973C935.489 96.9338 929.288 105.708 928.608 114.785C927.963 125.459 928.337 136.166 928.37 146.857C928.218 157.11 934.385 167.985 944.901 170.591C953.073 172.457 963.063 172.272 969.417 166.12C974.344 161.262 975.483 154.152 975.619 147.563C966.512 147.563 957.423 147.563 948.333 147.563C948.316 142.436 948.316 137.292 948.333 132.165C963.403 132.182 978.473 132.165 993.56 132.182C993.543 149.966 993.543 167.767 993.56 185.568C987.936 185.568 982.329 185.568 976.723 185.568C976.689 181.769 976.689 177.987 976.468 174.205C971.898 177.264 969.655 182.929 964.321 184.996C945.955 192.392 921.728 184.576 913.861 165.851C908 153.059 910.294 138.687 909.801 125.106C909.376 112.886 910.922 99.4719 919.655 90.0925Z" fill="white"/>
<path d="M476.363 79.3853C482.412 79.3853 488.477 79.3853 494.542 79.3853C498.569 110.919 502.17 142.503 506.486 173.986C509.221 172.658 509.374 169.633 509.85 167.111C514.437 137.864 519.211 108.633 523.9 79.3853C534.553 79.3853 545.222 79.3853 555.892 79.3853C560.886 110.516 565.915 141.629 570.859 172.759C571.522 172.877 572.864 173.129 573.527 173.264C577.451 141.982 581.223 110.667 585.097 79.3853C591.196 79.3853 597.312 79.3853 603.411 79.3853C598.416 114.785 593.388 150.168 588.393 185.568C577.723 185.551 567.071 185.585 556.401 185.551C551.627 155.228 546.734 124.921 541.977 94.5974C541.773 92.3114 541.145 90.0422 538.851 89C533.38 121.139 528.47 153.379 523.204 185.568C512.551 185.568 501.882 185.568 491.229 185.568C486.268 150.168 481.324 114.785 476.363 79.3853Z" fill="white"/>
<path d="M693.32 79.3853C699.164 79.3853 705.009 79.3853 710.887 79.3853C711.006 93.2359 710.581 107.087 711.108 120.937C715.78 117.727 718.974 112.465 724.615 110.684C735.624 106.734 748.808 107.944 758.305 114.987C766.29 120.971 771.132 130.485 772.135 140.267C773.443 152.605 772.202 166.305 763.674 176.087C754.703 187.03 738.597 190.106 725.447 185.803C719.348 183.82 715.712 178.323 710.921 174.541C710.581 178.189 710.53 181.887 710.513 185.568C704.771 185.568 699.028 185.568 693.32 185.568C693.303 150.185 693.303 114.785 693.32 79.3853ZM726.568 124.349C718.94 126.148 712.705 132.519 711.278 140.167C709.919 148.168 709.936 157.295 714.982 164.136C721.845 173.465 736.422 175.146 745.852 168.725C750.881 165.313 753.99 159.598 754.635 153.664C755.553 145.663 755.111 136.485 749.284 130.266C743.677 124.097 734.452 122.383 726.568 124.349Z" fill="white"/>
<path d="M783.858 79.3853C809.087 79.3853 834.3 79.3853 859.529 79.4021C859.495 87.2519 859.495 95.1185 859.529 102.985C847.789 110.163 834.775 115.441 823.919 123.896C834.351 124.45 846.056 124.719 854.025 132.468C862.095 139.326 862.961 150.807 861.381 160.539C859.937 169.549 853.94 177.55 845.938 181.971C835.795 187.753 823.494 188.543 812.145 186.812C801.17 185.03 790.399 179.012 785.149 169.011C781.768 163.077 781.292 156.152 781.02 149.512C786.882 149.462 792.76 149.479 798.639 149.479C799.029 154.656 799.505 160.321 803.243 164.355C810.905 173.028 824.836 173.869 834.928 169.213C846.158 164.187 848.316 145.31 836.525 139.78C826.196 135.342 814.558 138.015 803.668 137.292C803.651 130.737 803.684 124.198 803.617 117.659C816.087 110.23 829.373 104.094 841.401 95.9757C838.547 95.2025 835.625 94.9504 832.703 95.0008C816.427 95.0849 800.151 95.0345 783.875 95.0513C783.858 89.8237 783.858 84.6129 783.858 79.3853Z" fill="white"/>
<path d="M1008.19 79.3853C1014.03 79.3853 1019.89 79.3852 1025.77 79.4189C1025.74 114.785 1025.74 150.151 1025.77 185.534C1019.89 185.585 1014.03 185.568 1008.19 185.551C1008.19 150.168 1008.19 114.785 1008.19 79.3853Z" fill="white"/>
<path d="M1129.95 79.3853C1135.8 79.3853 1141.64 79.3853 1147.52 79.3853C1147.64 93.2359 1147.21 107.087 1147.74 120.937C1152.43 117.693 1155.64 112.432 1161.33 110.65C1173.29 106.381 1187.95 108.246 1197.42 117.037C1205.23 124.148 1209.02 134.771 1209.12 145.142C1209.7 155.967 1207.7 167.565 1200.34 176.037C1191.37 187.03 1175.21 190.123 1162.03 185.786C1155.96 183.803 1152.34 178.323 1147.57 174.524C1147.21 178.189 1147.16 181.887 1147.15 185.568C1141.4 185.568 1135.66 185.568 1129.95 185.568C1129.93 150.168 1129.93 114.785 1129.95 79.3853ZM1162.93 124.417C1146.99 128.249 1143.82 148.437 1149.83 161.312C1155.93 173.633 1174.41 176.222 1184.42 167.196C1188.87 163.38 1191.08 157.598 1191.49 151.899C1192.05 144.403 1191.34 135.981 1185.9 130.233C1180.21 124.03 1170.86 122.349 1162.93 124.417Z" fill="white"/>
<path d="M1304.37 79.3853C1310.21 79.3853 1316.07 79.3853 1321.94 79.3853C1321.94 114.785 1321.94 150.168 1321.94 185.568C1316.07 185.568 1310.21 185.568 1304.37 185.568C1304.37 150.168 1304.37 114.785 1304.37 79.3853Z" fill="white"/>
<path d="M628.81 111.474C643.727 105.54 663.214 108.163 673.442 121.291C680.747 130.149 682.039 142.033 681.614 153.076C662.517 153.093 643.438 153.026 624.342 153.11C625.259 157.295 625.956 161.834 628.98 165.162C635.113 172.659 646.377 174.273 655.178 170.911C659.697 168.843 662.348 164.422 665.066 160.506C669.823 163.027 674.665 165.414 679.422 167.986C674.478 176.021 667.478 183.333 658.066 185.988C643.778 189.838 626.568 187.316 616.408 175.886C606.979 165.65 605.619 150.723 607.828 137.612C609.833 126.148 617.767 115.76 628.81 111.474ZM634.519 125.745C628.895 128.35 626.058 134.217 624.529 139.864C637.696 139.982 650.863 139.965 664.03 139.864C662.925 136.402 662.314 132.586 659.748 129.83C653.683 122.82 642.606 121.98 634.519 125.745Z" fill="white"/>
<path d="M1069.59 109.188C1083.4 106.885 1099.2 110.129 1108.56 121.088C1117.24 130.77 1118.47 144.604 1116.8 156.908C1115.41 166.977 1109.39 176.34 1100.61 181.668C1089.7 188.341 1075.74 189.148 1063.66 185.467C1051.34 181.786 1041.57 171.095 1039.35 158.539C1037.58 147.142 1037.95 134.519 1044.63 124.635C1050.12 116.147 1059.65 110.801 1069.59 109.188ZM1073.12 124.333C1065.07 125.677 1058.31 132.216 1056.81 140.167C1055.35 148.033 1055.47 156.976 1060.24 163.783C1067.86 174.508 1085.81 175.146 1094.49 165.397C1102.21 155.698 1102.21 139.831 1094.12 130.35C1088.91 124.669 1080.53 123.005 1073.12 124.333Z" fill="white"/>
<path d="M1240.55 110.163C1251.1 107.49 1263.07 107.641 1272.8 112.953C1280.31 117.021 1284.8 125.24 1285.2 133.594C1285.75 145.041 1284.91 156.522 1285.56 167.952C1286.32 172.776 1292.68 170.675 1296.14 171.331C1296.09 176.071 1296.09 180.811 1296.11 185.568C1289.76 185.316 1283.11 186.459 1277.03 184.24C1272.68 182.542 1271.46 177.752 1269.69 174.003C1266.26 179.197 1262.33 184.778 1255.88 186.375C1245.6 188.913 1233.57 187.904 1225.14 181.08C1214.05 172.356 1214.68 152.589 1227.13 145.361C1239.6 137.813 1254.81 141.411 1268.6 140.537C1268.38 135.578 1268.67 129.779 1264.61 126.165C1259.55 121.694 1251.77 121.845 1245.65 123.711C1240.45 125.375 1237.99 130.586 1236.09 135.225C1230.75 133.393 1225.4 131.695 1220.08 129.863C1223.39 120.601 1230.77 112.718 1240.55 110.163ZM1234.83 162.052C1234.03 166.675 1237.39 171.028 1241.74 172.39C1249.76 174.928 1259.79 173.045 1265.05 166.17C1267.91 162.674 1268.15 158.018 1268.72 153.765C1260.98 153.715 1253.21 153.496 1245.46 153.799C1240.69 153.9 1235.08 156.791 1234.83 162.052Z" fill="white"/>
<path d="M490.04 224.834C501.118 213.336 518.702 211.084 533.839 213.891C543.761 215.689 553.021 221.573 557.948 230.397C562.127 237.323 563.079 245.509 563.418 253.409C557.438 253.442 551.458 253.426 545.477 253.443C545.222 245.542 542.98 236.667 535.674 232.297C524.359 226.178 507.217 228.582 501.067 240.785C495.834 251.308 498.603 263.461 497.872 274.723C497.363 284.64 498.501 296.305 507.404 302.558C516.17 308.509 529.252 308.694 537.781 302.239C543.931 297.163 545.341 288.842 545.426 281.362C551.39 281.362 557.387 281.345 563.367 281.396C563.469 292.389 561.091 304.189 552.97 312.257C543.303 322.309 528.148 324.276 514.845 322.78C502.018 321.536 489.446 314.19 483.856 302.424C477.332 289.027 479.982 273.781 479.405 259.443C478.997 247.257 481.019 233.894 490.04 224.834Z" fill="white"/>
<path d="M770.062 217.606C778.879 212.731 789.583 215.858 799.233 214.984C799.216 219.758 799.216 224.548 799.233 229.339C794.408 229.339 789.6 229.154 784.809 229.44C782.124 229.137 780.85 231.961 781.224 234.213C781.054 238.214 781.173 242.231 781.19 246.249C788.105 246.249 795.036 246.249 801.951 246.249C801.934 251.039 801.934 255.83 801.951 260.637C795.019 260.62 788.105 260.62 781.19 260.637C781.173 280.808 781.173 300.979 781.19 321.166C775.345 321.149 769.518 321.149 763.708 321.166C763.708 300.995 763.708 280.808 763.708 260.637C756.963 260.62 750.235 260.62 743.507 260.637C743.507 255.83 743.507 251.039 743.49 246.249C750.218 246.249 756.963 246.249 763.708 246.249C764.455 236.701 760.7 224.128 770.062 217.606Z" fill="white"/>
<path d="M599.164 245.593C612.84 242.265 628.794 244.265 639.395 254.065C647.465 261.377 651.016 272.42 650.744 283.043C651.135 293.347 648.281 304.155 640.873 311.686C629.507 323.553 610.717 325.839 595.613 320.595C583.584 316.476 574.342 305.551 572.524 293.078C571.046 282.236 571.454 270.352 577.57 260.855C582.327 253.157 590.397 247.828 599.164 245.593ZM604.04 260.519C589.157 264.839 586.405 283.8 591.739 296.222C598.059 310.593 621.029 311.837 629.49 298.877C634.451 290.927 634.332 280.505 631.359 271.882C627.282 261.444 614.319 257.241 604.04 260.519Z" fill="white"/>
<path d="M695.325 246.265C705.366 243.424 717.208 244.483 725.396 251.392C732.328 257.006 735.743 265.965 735.879 274.689C736.049 290.187 735.896 305.668 735.947 321.166C730.052 321.149 724.173 321.166 718.312 321.149C718.312 306.744 718.329 292.355 718.329 277.967C718.363 272.773 717.377 266.957 713.198 263.41C707.999 259.006 700.371 258.754 694.068 260.502C685.794 262.973 681.258 271.68 681.054 279.799C680.612 293.582 680.986 307.383 680.867 321.166C675.005 321.149 669.144 321.149 663.3 321.166C663.283 296.188 663.3 271.226 663.283 246.248C669.008 246.248 674.751 246.248 680.493 246.231C680.51 250.114 680.561 253.98 681.003 257.863C685.539 253.762 689.056 247.98 695.325 246.265Z" fill="white"/>
<path d="M830.239 246.669C844.035 241.727 861.33 243.559 871.796 254.451C880.749 263.41 882.669 276.605 882.108 288.657C863.012 288.725 843.916 288.557 824.82 288.742C825.737 293.061 826.553 297.734 829.747 301.096C835.71 308.072 846.226 309.685 854.704 306.845C859.801 305.113 862.638 300.256 865.527 296.121C870.284 298.608 875.075 301.012 879.866 303.449C875.024 311.736 867.752 319.082 858.204 321.67C843.729 325.486 826.298 322.662 816.308 310.845C807.269 300.457 806.114 285.682 808.408 272.689C810.582 261.074 818.924 250.719 830.239 246.669ZM834.724 261.477C829.237 264.133 826.586 269.932 824.938 275.429C838.139 275.58 851.357 275.58 864.575 275.429C863.42 271.731 862.57 267.697 859.716 264.839C853.43 258.317 842.642 257.645 834.724 261.477Z" fill="white"/>
<path d="M966.224 246.87C980.716 241.374 999.336 243.694 1009.65 255.964C1017.55 264.89 1019.04 277.244 1018.59 288.658C999.523 288.674 980.461 288.641 961.398 288.674C962.112 293.314 963.216 298.239 966.75 301.651C972.765 308.173 982.839 309.551 991.062 306.895C996.193 305.181 999.149 300.357 1001.88 296.087C1006.71 298.558 1011.53 300.995 1016.36 303.483C1011.62 311.434 1004.77 318.594 995.633 321.385C981.242 325.553 963.76 323.032 953.413 311.552C943.916 301.231 942.523 286.153 944.851 272.958C946.906 261.41 955.061 251.056 966.224 246.87ZM969.57 262.436C964.983 265.344 962.978 270.554 961.483 275.479C974.667 275.53 987.851 275.597 1001.04 275.446C999.88 271.613 998.979 267.445 995.955 264.587C989.142 257.914 977.488 257.511 969.57 262.436Z" fill="white"/>
<path d="M1060.97 246.955C1073.1 242.399 1088.7 244.82 1096.89 255.426C1101.63 261.226 1103.43 268.823 1103.48 276.169C1103.53 291.162 1103.46 306.156 1103.5 321.15C1097.6 321.166 1091.74 321.15 1085.86 321.166C1085.8 306.206 1085.97 291.23 1085.81 276.27C1085.88 270.269 1083.21 263.646 1077.28 261.192C1069.4 257.914 1058.92 259.158 1053.41 266.083C1049.51 270.857 1048.45 277.177 1048.44 283.161C1048.35 295.818 1048.44 308.492 1048.4 321.166C1042.54 321.15 1036.68 321.166 1030.82 321.15C1030.85 296.171 1030.83 271.21 1030.83 246.249C1036.56 246.249 1042.3 246.249 1048.06 246.232C1048.06 250.047 1048.08 253.846 1048.32 257.679C1052.82 254.418 1055.62 249.089 1060.97 246.955Z" fill="white"/>
<path d="M1128.12 252.501C1139.74 243.324 1156.4 241.962 1170.15 246.803C1181.46 250.904 1189.11 261.494 1191.47 272.941C1185.85 274.118 1180.22 275.244 1174.63 276.454C1173.17 271.714 1171.63 266.52 1167.41 263.461C1157.3 255.964 1140.06 259.107 1134.9 271.042C1131.45 279.312 1131.4 289.363 1135.52 297.415C1140.86 307.568 1154.84 310.324 1164.83 305.735C1170.78 302.996 1173.36 296.558 1175.06 290.708C1180.63 292.07 1186.24 293.347 1191.86 294.658C1188.89 306.021 1181.16 316.544 1169.72 320.628C1154.37 326.007 1135.03 323.368 1123.94 310.845C1116.67 302.844 1114.41 291.7 1114.98 281.245C1114.97 270.403 1119.42 259.343 1128.12 252.501Z" fill="white"/>
<path d="M1222.66 246.685C1237.21 241.391 1255.78 243.878 1265.9 256.3C1273.58 265.192 1274.99 277.396 1274.57 288.658C1255.47 288.725 1236.38 288.557 1217.28 288.742C1218.18 293.465 1219.28 298.558 1223.04 301.97C1229.17 308.307 1239.18 309.534 1247.33 306.795C1252.31 304.996 1255.13 300.222 1257.99 296.121C1262.73 298.609 1267.53 301.012 1272.31 303.45C1267.48 311.77 1260.18 319.099 1250.6 321.704C1236.51 325.335 1219.74 322.864 1209.62 311.787C1199.75 301.281 1198.42 285.699 1200.95 272.202C1203.28 260.788 1211.54 250.686 1222.66 246.685ZM1227.22 261.461C1221.7 264.116 1219.03 269.916 1217.41 275.446C1230.62 275.58 1243.82 275.58 1257.03 275.429C1255.86 271.714 1255.03 267.663 1252.14 264.822C1245.86 258.3 1235.1 257.662 1227.22 261.461Z" fill="white"/>
<path d="M894.341 246.248C900.067 246.248 905.809 246.248 911.552 246.248C911.603 249.476 911.654 252.686 911.976 255.93C915.255 253.006 917.515 248.686 921.864 247.139C927.25 245.324 933.043 246.03 938.633 245.912C938.633 251.022 938.633 256.166 938.633 261.292C931.565 261.494 923.563 260.183 917.532 264.688C913.183 267.646 911.857 273.143 911.942 278.085C911.874 292.44 911.942 306.794 911.925 321.166C906.064 321.149 900.203 321.149 894.358 321.166C894.358 296.188 894.358 271.227 894.341 246.248Z" fill="white"/>
</svg>
