<?xml version="1.0" encoding="UTF-8"?>
<!-- Generator: visioncortex VTracer 0.6.1 -->
<svg version="1.1" xmlns="http://www.w3.org/2000/svg" width="1280" height="1100">
<path d="M0 0 C422.4 0 844.8 0 1280 0 C1280 363 1280 726 1280 1100 C857.6 1100 435.2 1100 0 1100 C0 737 0 374 0 0 Z " fill="#000000" transform="translate(0,0)"/>
<path d="M0 0 C6.96634145 4.33461246 10.1437585 11.24272333 12 19 C12.06298542 22.6386652 12.06298542 22.6386652 11.77864075 26.57984924 C11.72660643 27.31073779 11.67457212 28.04162633 11.62096101 28.79466301 C10.88435162 38.46644166 9.70062809 48.09422477 8.54174805 57.72241211 C8.28750156 59.86625602 8.03370129 62.01015289 7.78030586 64.15409756 C7.09115333 69.9743374 6.39585601 75.79382851 5.69949937 81.6132102 C4.95550374 87.84030025 4.21741694 94.06809079 3.47868347 100.29580688 C2.21291623 110.96020072 0.94373141 121.62418151 -0.32794189 132.28787231 C-2.23824308 148.30727899 -4.14229573 164.32742441 -6.04468435 180.34777246 C-6.71105945 185.95936224 -7.37753275 191.57094036 -8.04399148 197.1825202 C-8.21058199 198.58522812 -8.37716885 199.98793648 -8.54375204 201.39064527 C-9.71152431 211.22381099 -10.88006782 221.05688477 -12.0491862 230.88989053 C-17.15603148 273.84253284 -22.22713158 316.79930166 -27.26926899 359.75958824 C-28.59438751 371.04928229 -29.92224488 382.33865054 -31.25259602 393.62772918 C-32.02582269 400.18917929 -32.79878707 406.75066031 -33.57173848 413.31214285 C-33.75736645 414.8878929 -33.94300524 416.46364167 -34.1286552 418.03938913 C-36.33910584 436.80206112 -38.53355243 455.56639554 -40.69650269 474.33460999 C-41.60728758 482.23511126 -42.52691961 490.13457196 -43.45000648 498.03364468 C-44.12996233 503.85834532 -44.79818418 509.684199 -45.45546913 515.5114994 C-45.84006732 518.89546495 -46.23640793 522.27797129 -46.63646317 525.66014099 C-46.8121826 527.16634445 -46.98300343 528.67313005 -47.14817429 530.18052673 C-47.36985629 532.19877605 -47.61121984 534.21483443 -47.85351562 536.23071289 C-47.9797229 537.33234268 -48.10593018 538.43397247 -48.23596191 539.56898499 C-50.3162884 548.91096877 -54.94096005 554.66535966 -61.66534424 561.29353333 C-62.99120029 562.63003096 -62.99120029 562.63003096 -64.34384131 563.99352854 C-66.78238013 566.45090585 -69.23613785 568.89256121 -71.69281888 571.33178318 C-74.3454411 573.9709895 -76.98357255 576.62461501 -79.62361145 579.27639771 C-84.79157701 584.46271234 -89.97285576 589.63552466 -95.15897831 594.80367634 C-99.37441943 599.00507484 -103.58474992 603.21153273 -107.79149628 607.42163658 C-108.39089792 608.02151567 -108.99029957 608.62139476 -109.6078649 609.239452 C-110.82561637 610.45822983 -112.04335333 611.67702215 -113.26107594 612.89582881 C-124.02171963 623.66503394 -134.79492436 634.42158689 -145.57470703 645.17163086 C-156.02876218 655.59684641 -166.47187135 666.03287669 -176.90380859 676.48022461 C-188.27131991 687.86450573 -199.64517557 699.24238024 -211.02982211 710.60952777 C-212.24429978 711.8221611 -213.45877265 713.03479924 -214.67324066 714.24744225 C-215.27074694 714.84403644 -215.86825322 715.44063063 -216.48386575 716.05530343 C-220.68906923 720.25490666 -224.88980874 724.45894341 -229.08890533 728.66465187 C-234.20769238 733.79117892 -239.33367671 738.9103796 -244.46888646 744.02045796 C-247.08752791 746.62662039 -249.70292034 749.23583102 -252.30972481 751.85383797 C-255.13794624 754.69398325 -257.98145294 757.51831742 -260.82672119 760.34138489 C-261.64502576 761.16793022 -262.46333033 761.99447556 -263.30643201 762.84606773 C-269.34398672 768.7969255 -275.16043302 773.44636474 -283.98681641 773.5559082 C-284.65116699 773.5374585 -285.31551758 773.51900879 -286 773.5 C-286.69915527 773.48864014 -287.39831055 773.47728027 -288.11865234 773.46557617 C-293.58425182 773.25957983 -297.66883546 772.32946349 -302 769 C-302.9384375 768.36578125 -303.876875 767.7315625 -304.84375 767.078125 C-309.39768314 763.21172435 -311.43082942 757.76354525 -313.875 752.4375 C-314.43106934 751.25494629 -314.98713867 750.07239258 -315.56005859 748.85400391 C-320.75818816 737.75669019 -325.68949197 726.53551751 -330.63208008 715.32275391 C-335.80999595 703.59017099 -341.15090433 691.93897506 -346.5625 680.3125 C-348.16561852 676.86730557 -349.76859751 673.42204643 -351.37109375 669.9765625 C-351.76134735 669.1375087 -352.15160095 668.2984549 -352.55368042 667.43397522 C-356.45434376 659.03826321 -360.29972882 650.61778926 -364.125 642.1875 C-364.43205872 641.51080261 -364.73911743 640.83410522 -365.05548096 640.13690186 C-370.06029284 629.10179251 -375.04269658 618.0565331 -380 607 C-384.90815949 607 -386.28401016 608.70160178 -389.5625 611.9375 C-390.63179706 612.95686368 -391.70345884 613.97375195 -392.77734375 614.98828125 C-393.31601074 615.4982666 -393.85467773 616.00825195 -394.40966797 616.53369141 C-396.72931319 618.67243706 -399.16629629 620.64894368 -401.625 622.625 C-405.18184136 625.48881783 -408.62539052 628.42346328 -412 631.5 C-415.31989486 634.52282421 -418.69764112 637.42512161 -422.1875 640.25 C-428.62711993 645.46518515 -434.85455403 650.91331752 -441.10351562 656.35351562 C-444.07855189 658.93637409 -447.0694406 661.50056914 -450.0625 664.0625 C-450.92258667 664.79883667 -450.92258667 664.79883667 -451.80004883 665.55004883 C-452.95530518 666.53885203 -454.11065976 667.52754049 -455.26611328 668.51611328 C-458.17894046 671.00895524 -461.08934061 673.50462766 -464 676 C-465.16665518 677.0000134 -466.33332184 678.00001341 -467.5 679 C-468.0775 679.495 -468.655 679.99 -469.25 680.5 C-480.33333333 690 -491.41666667 699.5 -502.5 709 C-503.07758057 709.49508057 -503.65516113 709.99016113 -504.25024414 710.50024414 C-505.41605104 711.49948396 -506.58190386 712.49867023 -507.74780273 713.49780273 C-510.67800398 716.00899461 -513.60738291 718.52113393 -516.53515625 721.03515625 C-522.70659807 726.3327656 -528.89401541 731.61015999 -535.10791016 736.85791016 C-539.06465889 740.20206277 -543.00505908 743.56480602 -546.9375 746.9375 C-547.5145166 747.4320166 -548.0915332 747.9265332 -548.68603516 748.43603516 C-551.70160948 751.0221313 -554.71159547 753.61444146 -557.71484375 756.21484375 C-578.05185514 773.79771658 -578.05185514 773.79771658 -592.19921875 773.37109375 C-600.76059952 772.53519326 -606.2073666 768.52198598 -611.625 762.0625 C-614.65476125 757.51785813 -615.4731321 752.8231497 -616.1262331 747.48741722 C-616.2216939 746.75151624 -616.31715471 746.01561525 -616.41550826 745.25741424 C-616.72855339 742.83158892 -617.03208687 740.40467473 -617.33552551 737.97763062 C-617.5550909 736.26041029 -617.77522536 734.54326264 -617.99590093 732.82618463 C-618.56282806 728.40199403 -619.12180585 723.97683893 -619.67845872 719.55134529 C-620.16817486 715.66557685 -620.66422425 711.78062083 -621.15973473 707.89558792 C-622.22380237 699.53811011 -623.27428799 691.17894802 -624.32271516 682.81949592 C-624.86256237 678.51719513 -625.40373323 674.21506077 -625.94471741 669.91290283 C-626.99839404 661.53199773 -628.05092083 653.15094865 -629.1030375 644.76984759 C-630.34076277 634.91062003 -631.57973678 625.0515495 -632.81875084 615.19248383 C-635.0404534 597.51368767 -637.26113986 579.83476404 -639.48120117 562.15576172 C-641.60914027 545.21036857 -643.7376699 528.26504975 -645.86694336 511.31982422 C-646.06259458 509.76278727 -646.06259458 509.76278727 -646.26219835 508.17429502 C-646.78738675 503.99473688 -647.31257631 499.81517888 -647.83776812 495.63562117 C-650.0243259 478.23451466 -652.21039524 460.83334678 -654.39639688 443.43217039 C-654.88490742 439.54349921 -655.37343557 435.65483025 -655.8619802 431.76616335 C-656.45236212 427.06689446 -657.04270514 422.36762068 -657.6330241 417.66834389 C-657.86527101 415.81957755 -658.09753098 413.97081286 -658.32980411 412.12204982 C-659.56955328 402.2542626 -660.80829047 392.38635063 -662.0440321 382.51806068 C-662.48089426 379.03019984 -662.91783806 375.54234924 -663.35482788 372.05450439 C-663.51598925 370.76797556 -663.51598925 370.76797556 -663.6804064 369.45545624 C-665.16461799 357.61103654 -666.66320279 345.76851094 -668.17200559 333.92719948 C-669.00447643 327.3925517 -669.83237734 320.85732728 -670.65907264 314.32194655 C-671.32623587 309.05069373 -671.99917593 303.78022294 -672.67664507 298.51028532 C-673.09104401 295.27531082 -673.49971074 292.03963094 -673.90680431 288.8037298 C-674.09495739 287.31745299 -674.28544416 285.83146928 -674.47854592 284.34582731 C-677.46928328 261.3085288 -677.46928328 261.3085288 -673.5 253.75 C-672.80390625 252.35007812 -672.80390625 252.35007812 -672.09375 250.921875 C-667.18153617 244.06677063 -660.67715671 239.90610651 -653.14501953 236.38891602 C-652.25556515 235.95955435 -651.36611076 235.53019268 -650.44970322 235.08782005 C-648.4635128 234.12982397 -646.4747014 233.17724839 -644.4836998 232.22929192 C-639.23413647 229.7266539 -634.00392543 227.18413251 -628.77335286 224.64211333 C-627.44390534 223.99611235 -626.11425483 223.35052899 -624.78441501 222.70533597 C-604.6675494 212.94300598 -584.69130304 202.89689514 -564.69879436 192.88318205 C-559.33695144 190.19802197 -553.97410971 187.51485817 -548.61138916 184.83145142 C-535.36474498 178.20249275 -522.11981215 171.57011812 -508.875 164.9375 C-494.35725147 157.66753753 -479.83914749 150.3982884 -465.31913102 143.13285643 C-459.06609642 140.003857 -452.81403887 136.87291653 -446.56274199 133.74044693 C-442.71300117 131.81186103 -438.86244234 129.88491294 -435.0116539 127.9584198 C-433.22580176 127.06455509 -431.44029656 126.16999683 -429.655159 125.27470589 C-427.22738934 124.05723296 -424.7984119 122.84220452 -422.36911011 121.62779236 C-421.65915701 121.27101833 -420.94920391 120.9142443 -420.21773708 120.54665893 C-413.21100596 117.05071148 -407.04907736 115.39688048 -399.3671875 117.8359375 C-391.34366395 121.49191612 -386.10913359 126.8582872 -382.69948876 134.99156189 C-381.49139002 138.46036894 -381.09200237 141.98012703 -380.66563416 145.61523438 C-380.55830965 146.45748817 -380.45098515 147.29974197 -380.34040838 148.16751862 C-379.9851831 150.97511861 -379.64484712 153.78431752 -379.30444336 156.59375 C-379.05200387 158.61306999 -378.798628 160.63227312 -378.54438782 162.65136719 C-377.99979347 166.99235138 -377.46177048 171.33408147 -376.92884636 175.67651367 C-376.08593135 182.54414253 -375.22813473 189.40986245 -374.36830139 196.27539062 C-373.01000772 207.13500721 -371.66140752 217.99580143 -370.31707913 228.85715485 C-367.90958446 248.30792508 -365.49134253 267.75735254 -363.06102282 287.20528412 C-362.20872492 294.02927416 -361.36252189 300.85398444 -360.52120388 307.67933655 C-359.99675862 311.92584655 -359.46782652 316.17178932 -358.93777275 320.41760254 C-358.69314884 322.38496985 -358.45043925 324.35257628 -358.20979691 326.32043457 C-357.88075491 329.00920715 -357.544888 331.69704429 -357.2073822 334.38476562 C-357.11408959 335.16113625 -357.02079697 335.93750687 -356.92467731 336.73740387 C-356.33939834 341.32870399 -355.37985238 345.57995869 -354 350 C-346.66271415 347.68918769 -339.66673753 344.82608313 -332.609375 341.7734375 C-331.42893616 341.26632233 -330.24849731 340.75920715 -329.0322876 340.23672485 C-325.90233702 338.89206687 -322.77426713 337.54308929 -319.64660645 336.19311523 C-316.53632621 334.85147282 -313.42436405 333.51374496 -310.3125 332.17578125 C-305.48682602 330.10049735 -300.66205504 328.02312675 -295.83789062 325.94433594 C-286.56438766 321.94936974 -277.2827427 317.97343892 -268 314 C-267.07479424 305.62491593 -266.15313124 297.24944407 -265.23330307 288.87376785 C-265.00064856 286.7559039 -264.76774252 284.63806771 -264.53482056 282.52023315 C-262.67589781 265.60856606 -260.8519175 248.69375897 -259.09667587 231.77099228 C-258.82557381 229.15759389 -258.55386934 226.54425874 -258.28201294 223.93093872 C-257.48828738 216.2969145 -256.69683696 208.66269551 -255.91719341 201.02721882 C-255.59185374 197.85121932 -255.26224328 194.67567268 -254.93161964 191.50021935 C-254.7791262 190.02626622 -254.62848853 188.55211968 -254.47989464 187.07776833 C-251.83570691 160.86349231 -251.83570691 160.86349231 -243.23193359 153.48339844 C-238.76054752 149.99694175 -234.09140338 146.80099289 -229.39599609 143.62597656 C-225.72698194 141.13610146 -222.11670748 138.56494452 -218.5 136 C-217.08991184 135.00771574 -215.67975521 134.01552876 -214.26953125 133.0234375 C-209.88246903 129.92680621 -205.53385763 126.77838884 -201.1875 123.625 C-194.0028574 118.41457223 -186.74912513 113.31019059 -179.46826172 108.23535156 C-173.12402847 103.80582488 -166.84086587 99.29767804 -160.578125 94.75390625 C-155.57901735 91.13021446 -150.550951 87.55102115 -145.5 84 C-139.63508857 79.87613855 -133.80566268 75.70685712 -128 71.5 C-121.49941517 66.78959343 -114.9613612 62.13702392 -108.39453125 57.51953125 C-103.2343328 53.88545434 -98.1107106 50.20328599 -93 46.5 C-86.49597621 41.78710152 -79.9555183 37.1305297 -73.38354492 32.51293945 C-69.06915963 29.47633896 -64.78588586 26.40104079 -60.52148438 23.29467773 C-52.90847976 17.75572887 -45.23648003 12.30267018 -37.5 6.9375 C-36.60450439 6.30610107 -35.70900879 5.67470215 -34.78637695 5.02416992 C-22.84577122 -3.19005351 -13.52712359 -6.63681702 0 0 Z " fill="#F96023" transform="translate(951,8)"/>
<path d="M0 0 C0.99 0.495 0.99 0.495 2 1 C1.37381015 15.46644046 -0.38280326 29.78505316 -2.08837891 44.15649414 C-2.40986817 46.88861733 -2.7300426 49.62089424 -3.05027771 52.35316467 C-3.74037675 58.23520653 -4.43364639 64.11686759 -5.12910843 69.99827766 C-6.15093467 78.63975047 -7.16783485 87.28179784 -8.18369429 95.92397385 C-9.85406383 110.13306997 -11.52835015 124.34170173 -13.20507812 138.55004883 C-14.79537279 152.02604159 -16.38386946 165.50224404 -17.96972656 178.97875977 C-18.11363191 180.20161664 -18.11363191 180.20161664 -18.26044443 181.4491777 C-19.03330621 188.01677666 -19.80606655 194.58438756 -20.57880229 201.15200135 C-22.69291832 219.12000244 -24.80838505 237.08783949 -26.93219551 255.05469762 C-27.69641369 261.51991639 -28.46032247 267.98517172 -29.22413462 274.45043847 C-29.41365725 276.05463101 -29.60319415 277.65882186 -29.79274541 279.26301101 C-32.41846876 301.48622537 -35.01589568 323.71253399 -37.58463789 345.94240584 C-38.20220457 351.28522074 -38.82190196 356.62778493 -39.4431591 361.97017193 C-39.52892303 362.70770478 -39.61468696 363.44523763 -39.7030498 364.20511996 C-40.12854713 367.86349602 -40.5543354 371.52183809 -40.98033702 375.18015546 C-41.87806204 382.89337324 -42.76831966 390.60738209 -43.64884147 398.32258292 C-44.30881126 404.09949431 -44.98084541 409.87495994 -45.65748835 415.64994359 C-45.93055092 417.99816147 -46.19947282 420.34686509 -46.46395636 422.69606471 C-46.82309738 425.88167771 -47.19671766 429.06526435 -47.57406616 432.24876404 C-47.67472024 433.17374398 -47.77537431 434.09872392 -47.87907851 435.05173355 C-48.88235545 443.26984438 -52.12061547 447.42131479 -57.96595764 453.20646667 C-58.57147553 453.81369342 -59.17699343 454.42092016 -59.80086035 455.04654771 C-61.82744473 457.07642161 -63.86108575 459.09907281 -65.89477539 461.12182617 C-67.350512 462.57699854 -68.80580816 464.03261164 -70.26069641 465.4886322 C-74.21060648 469.43911638 -78.16665569 473.38340076 -82.12382436 477.32661223 C-86.26112693 481.45141279 -90.39276698 485.58187726 -94.52500916 489.71174622 C-102.35253781 497.53305685 -110.18515034 505.34925569 -118.01959747 513.16363555 C-126.93054615 522.05225198 -135.83583746 530.94652708 -144.74064648 539.84129369 C-161.78234278 556.86354045 -178.82976184 573.88004394 -195.88220268 590.89152688 C-197.9223462 592.9268096 -199.96228522 594.96228522 -202 597 C-203.1784041 592.61319198 -202.85433048 588.63467733 -202.35475159 584.18339539 C-202.23211532 583.00895519 -202.23211532 583.00895519 -202.10700154 581.81078893 C-201.8305553 579.18123011 -201.54329469 576.55296592 -201.25610352 573.92456055 C-201.05462604 572.0294297 -200.85381894 570.13422748 -200.65362835 568.23896027 C-200.10332424 563.04722332 -199.54364147 557.85653384 -198.98245144 552.66596389 C-198.38565274 547.13046433 -197.79763629 541.59403185 -197.2086792 536.05769348 C-196.19713472 526.55976058 -195.1803021 517.06240636 -194.15982056 507.56542969 C-192.55690525 492.64728984 -190.96445271 477.72804319 -189.3737793 462.80859375 C-188.84028695 457.8058711 -188.30672 452.80315641 -187.77311707 447.80044556 C-187.6411309 446.56297313 -187.50914474 445.32550071 -187.37315899 444.05052912 C-186.4370649 435.27528584 -185.49948975 426.50020155 -184.56123352 417.72518921 C-180.59308432 380.60979014 -176.66404509 343.49043679 -172.76909256 306.3672905 C-171.72646078 296.4314074 -170.67935886 286.49600484 -169.62893915 276.56094217 C-168.9290383 269.94043858 -168.2300154 263.31984226 -167.53125 256.69921875 C-167.45642615 255.99041754 -167.38160231 255.28161633 -167.30451107 254.55133629 C-165.21232734 234.7277903 -163.1696321 214.89975744 -161.16834527 195.06683528 C-160.68092772 190.24049942 -160.18950145 185.41458546 -159.69511414 180.58895874 C-159.5930526 179.59274614 -159.5930526 179.59274614 -159.48892921 178.57640803 C-159.15185362 175.287942 -158.81418243 171.9995378 -158.47609234 168.71117592 C-157.711633 161.26293196 -156.96612913 153.81313382 -156.23610878 146.3614397 C-155.7941502 141.89590302 -155.33415707 137.43236716 -154.86880493 132.96921349 C-154.65943616 130.92444368 -154.45774411 128.87887091 -154.26434326 126.83252907 C-154.00159724 124.06201659 -153.71194251 121.29561969 -153.4152832 118.52856445 C-153.31157394 117.32815395 -153.31157394 117.32815395 -153.20576954 116.10349274 C-152.47440988 109.73285356 -149.83891034 107.28626818 -145.04980469 103.42944336 C-144.43008789 102.98737549 -143.81037109 102.54530762 -143.171875 102.08984375 C-142.46345459 101.58122803 -141.75503418 101.0726123 -141.02514648 100.54858398 C-140.27434814 100.01692627 -139.5235498 99.48526855 -138.75 98.9375 C-137.95859619 98.37168213 -137.16719238 97.80586426 -136.35180664 97.22290039 C-133.90513877 95.47632229 -131.45342123 93.73707577 -129 92 C-127.89857666 91.21882813 -127.89857666 91.21882813 -126.77490234 90.421875 C-121.1583475 86.44064955 -115.52748014 82.47987583 -109.89550781 78.52050781 C-100.30611618 71.77636914 -90.77039071 64.96353431 -81.2734375 58.08984375 C-72.477438 51.72498799 -63.62726196 45.43836509 -54.75 39.1875 C-48.04452752 34.46545411 -41.38764942 29.67960768 -34.74682617 24.8671875 C-28.84420029 20.59532289 -22.89926774 16.38625463 -16.93969727 12.19433594 C-11.2497153 8.18804834 -5.60911062 4.11900132 0 0 Z " fill="#000000" transform="translate(901,88)"/>
<path d="M0 0 C2.84269492 17.88254559 5.07716273 35.84284799 7.34276366 53.80528879 C7.67080398 56.40528409 7.99944543 59.00520274 8.32827187 61.60509872 C9.47849386 70.70027734 10.6260053 79.79579371 11.77124023 88.89160156 C12.83451637 97.33579721 13.90426548 105.77915655 14.97686213 114.22217286 C15.90276071 121.51298954 16.82387223 128.80440102 17.7413519 136.09628189 C18.28721076 140.43385284 18.83501065 144.7711564 19.38777733 149.10785294 C19.90628218 153.17687938 20.41880352 157.2466164 20.92685127 161.31696129 C21.1133565 162.80305429 21.30194885 164.2888872 21.49286652 165.77441978 C22.48894617 173.53497189 23.29944133 181.16227262 23 189 C22.40311182 189.25434185 21.80622364 189.5086837 21.19124794 189.77073288 C15.63449628 192.13889926 10.08172041 194.51623802 4.53076172 196.89794922 C2.43858801 197.79431762 0.34549716 198.68854858 -1.74853516 199.58056641 C-4.76450441 200.86575615 -7.7770528 202.15868741 -10.7890625 203.453125 C-11.72054108 203.84808167 -12.65201965 204.24303833 -13.61172485 204.64996338 C-29.29630522 211.4209544 -33.64344517 222.91523618 -40.375 237.875 C-41.07569031 239.41985931 -41.77678952 240.96453321 -42.47827148 242.5090332 C-47.74472783 254.12619659 -52.90906449 265.78857824 -58.06463623 277.45526123 C-63.03545893 288.69699586 -68.16949636 299.84984656 -73.42752075 310.95980835 C-78.44550524 321.57107608 -83.26403645 332.26012298 -88 343 C-93.17455501 354.7340075 -98.46575362 366.40144146 -103.9375 378 C-104.25477051 378.67257843 -104.57204102 379.34515686 -104.89892578 380.03811646 C-105.36854736 381.03353958 -105.36854736 381.03353958 -105.84765625 382.04907227 C-106.45969695 383.3464879 -107.07167753 384.6439319 -107.68359375 385.94140625 C-107.976362 386.56213516 -108.26913025 387.18286407 -108.57077026 387.82240295 C-111.64996931 394.3618933 -114.61332644 400.95026348 -117.55859375 407.55078125 C-120.52468893 414.19261922 -123.54732184 420.80875039 -126.56222534 427.42852783 C-132.10174219 439.59258145 -137.61459593 451.76670193 -143 464 C-144.32 463.67 -145.64 463.34 -147 463 C-151.4339358 427.68060434 -155.86699995 392.36109939 -160.29897377 357.04145748 C-160.82813472 352.82443119 -161.35730254 348.60740576 -161.88647461 344.39038086 C-161.99177595 343.55122308 -162.09707729 342.7120653 -162.20556957 341.8474785 C-163.88681305 328.44959778 -165.56860567 315.05178605 -167.25061952 301.65400202 C-168.99034993 287.79638243 -170.72944799 273.93868358 -172.46801716 260.08091825 C-173.43872645 252.34373525 -174.40968403 244.60658362 -175.38137627 236.869524 C-176.4796675 228.12414629 -177.5771 219.37866114 -178.67358398 210.63305664 C-178.76167817 209.93048637 -178.84977236 209.22791609 -178.94053607 208.50405581 C-181.14886228 190.88990579 -183.3407303 173.27378784 -185.51174927 155.65499878 C-185.61591071 154.8097197 -185.72007215 153.96444061 -185.82738999 153.09354701 C-186.84367463 144.84487592 -187.85871929 136.59605361 -188.87112942 128.34690604 C-189.24068012 125.33646267 -189.61071388 122.32607879 -189.98080771 119.31570216 C-190.23371653 117.25669701 -190.48585856 115.19759895 -190.73796809 113.1384958 C-190.89018112 111.90031591 -191.04239415 110.66213601 -191.1992197 109.38643551 C-191.33047955 108.31600598 -191.4617394 107.24557646 -191.59697682 106.14270967 C-191.89403021 103.82633534 -192.24333214 101.5165175 -192.62134165 99.21196991 C-193 96 -193 96 -191.85931396 94.2220459 C-189.70754062 92.80777921 -187.55780999 91.59572217 -185.25097656 90.44726562 C-184.28436096 89.96245728 -183.31774536 89.47764893 -182.32183838 88.97814941 C-181.27203796 88.45942261 -180.22223755 87.9406958 -179.140625 87.40625 C-178.045224 86.85948608 -176.949823 86.31272217 -175.82122803 85.74938965 C-173.48898462 84.58663436 -171.15530191 83.42676227 -168.8203125 82.26953125 C-165.3303309 80.53981389 -161.8444578 78.8020627 -158.359375 77.0625 C-147.99039081 71.89628711 -137.60015085 66.78435848 -127.1328125 61.8203125 C-112.17545903 54.71743738 -97.38778842 47.26942871 -82.58251953 39.85644531 C-78.43964522 37.78214691 -74.29496934 35.71147744 -70.14975929 33.64185143 C-66.89203125 32.01481459 -63.63527824 30.38583358 -60.37879562 28.75630569 C-58.85246268 27.99281198 -57.32584659 27.22988397 -55.79890823 26.46760178 C-47.04639312 22.09666557 -38.34746041 17.64135547 -29.71746254 13.03252983 C-24.08610686 10.02647817 -18.39167478 7.17579146 -12.625 4.4375 C-11.72523438 4.00115234 -10.82546875 3.56480469 -9.8984375 3.11523438 C-9.03734375 2.70466797 -8.17625 2.29410156 -7.2890625 1.87109375 C-6.53318848 1.50943115 -5.77731445 1.14776855 -4.99853516 0.77514648 C-3 0 -3 0 0 0 Z " fill="#000000" transform="translate(522,193)"/>
<path d="M0 0 C10.56 0 21.12 0 32 0 C34.22661249 4.45322499 35.79090531 8.12508273 37.20483398 12.80541992 C37.40367188 13.45852646 37.60250977 14.111633 37.80737305 14.78453064 C38.45925676 16.93151586 39.10303091 19.08082641 39.74609375 21.23046875 C40.20279697 22.74586955 40.65975663 24.26119309 41.11695862 25.77644348 C42.0746187 28.95524398 43.02806661 32.13527137 43.97875977 35.31616211 C44.94339692 38.54230876 45.91404231 41.76653706 46.89086914 44.98901367 C57.24311703 79.1415753 57.24311703 79.1415753 60 95 C60.66 95 61.32 95 62 95 C61.90875854 93.63862915 61.90875854 93.63862915 61.81567383 92.24975586 C61.82802476 86.64356963 63.49585874 81.37893453 64.94921875 76.00390625 C65.26122726 74.82711807 65.57323578 73.6503299 65.8946991 72.43788147 C69.34088595 59.53869755 72.98084569 46.69363959 76.68139648 33.86547852 C77.64426704 30.52673425 78.59755234 27.18532619 79.54884815 23.84326839 C80.47067676 20.61125775 81.40189027 17.38197195 82.33203125 14.15234375 C82.67160355 12.95681381 83.01117584 11.76128387 83.36103821 10.52952576 C83.67864609 9.43560013 83.99625397 8.3416745 84.32348633 7.21459961 C84.7381591 5.77122475 84.7381591 5.77122475 85.16120911 4.2986908 C86 2 86 2 88 0 C90.61720833 -0.23638693 93.12534609 -0.3522504 95.74609375 -0.37109375 C96.89646873 -0.38463646 96.89646873 -0.38463646 98.07008362 -0.39845276 C99.69324836 -0.41296898 101.31647181 -0.42184541 102.93969727 -0.42553711 C105.42499157 -0.43744009 107.90780784 -0.48661092 110.39257812 -0.53710938 C111.96873786 -0.54657276 113.54491287 -0.5538082 115.12109375 -0.55859375 C115.86491806 -0.57812607 116.60874237 -0.59765839 117.37510681 -0.61778259 C119.47827148 -0.59936523 119.47827148 -0.59936523 123 0 C125.37319421 3.23584669 126.58376505 6.41104516 127.60644531 10.26391602 C127.88393616 11.2943251 128.161427 12.32473419 128.44732666 13.3863678 C128.88332184 15.05329933 128.88332184 15.05329933 129.328125 16.75390625 C129.64021912 17.92340317 129.95231323 19.09290009 130.27386475 20.2978363 C131.27316384 24.05084012 132.26147736 27.80664519 133.25 31.5625 C133.89907577 34.00082784 134.54880936 36.43898068 135.19921875 38.87695312 C138.53768872 51.42807033 141.79676361 63.99961692 144.984375 76.58984375 C145.44024994 78.37183922 145.44024994 78.37183922 145.90533447 80.18983459 C146.18117371 81.28855392 146.45701294 82.38727325 146.74121094 83.51928711 C146.98514587 84.48402451 147.22908081 85.4487619 147.48040771 86.44273376 C148 89 148 89 148 93 C148.66 93 149.32 93 150 93 C150.3403125 91.78787842 150.680625 90.57575684 151.03125 89.3269043 C154.82530762 75.8901446 158.84237637 62.52892643 162.95898438 49.18774414 C164.00186111 45.80646579 165.04019552 42.42381545 166.078125 39.04101562 C169.11093742 29.17709175 172.16743295 19.32043024 175.375 9.51171875 C175.6136377 8.76912308 175.85227539 8.0265274 176.09814453 7.26142883 C177.76533013 2.23466987 177.76533013 2.23466987 180 0 C183.07275391 -0.22705078 183.07275391 -0.22705078 186.9765625 -0.1953125 C188.00443375 -0.19106766 188.00443375 -0.19106766 189.05307007 -0.18673706 C191.24389027 -0.17553281 193.43430316 -0.15042859 195.625 -0.125 C197.1093691 -0.11497048 198.5937446 -0.10584458 200.078125 -0.09765625 C203.71888261 -0.07559294 207.35940156 -0.04106176 211 0 C212.11583735 4.06779916 211.81978784 6.59650621 210.56323242 10.59814453 C210.04865479 12.26719849 210.04865479 12.26719849 209.52368164 13.9699707 C209.13817139 15.1787085 208.75266113 16.38744629 208.35546875 17.6328125 C207.9536989 18.92162837 207.55300861 20.21078121 207.15332031 21.50024414 C206.29392075 24.26532504 205.42743352 27.02804316 204.55526733 29.78912354 C203.17624028 34.15520069 201.81282224 38.52604689 200.45239258 42.89794922 C199.0468076 47.41283416 197.64044112 51.92746278 196.22880554 56.44046021 C191.86323771 70.40003679 187.58352426 84.38511171 183.32730103 98.37835693 C182.22032541 102.01709951 181.11180137 105.65536629 180.00268555 109.29345703 C179.65446243 110.43595917 179.30623932 111.5784613 178.94746399 112.75558472 C178.27165587 114.97255266 177.5956275 117.18945348 176.9193573 119.40628052 C175.25987156 124.8495673 173.60873544 130.295186 171.97119141 135.74511719 C171.64774246 136.81809052 171.32429352 137.89106384 170.99104309 138.99655151 C170.37795231 141.03133913 169.76738661 143.0668898 169.15971375 145.103302 C168.75448235 146.44604691 168.75448235 146.44604691 168.34106445 147.81591797 C167.98719414 148.99684525 167.98719414 148.99684525 167.62617493 150.20162964 C167 152 167 152 166 153 C163.64768301 153.10081087 161.32538053 153.13972939 158.97265625 153.1328125 C158.26854111 153.13376923 157.56442596 153.13472595 156.838974 153.13571167 C155.34683137 153.13639341 153.85468579 153.13453952 152.36254883 153.13037109 C150.07561582 153.12503063 147.78887992 153.1303121 145.50195312 153.13671875 C144.05468707 153.13605781 142.60742113 153.13477632 141.16015625 153.1328125 C140.47365494 153.13483673 139.78715363 153.13686096 139.07984924 153.13894653 C134.22991527 153.11495764 134.22991527 153.11495764 132 152 C131.16961051 149.60418076 130.46085659 147.25292605 129.80102539 144.80908203 C129.59097366 144.05607315 129.38092194 143.30306427 129.164505 142.52723694 C128.46794789 140.02280213 127.78280464 137.51539025 127.09765625 135.0078125 C126.61514575 133.26420315 126.13193583 131.52078721 125.64805603 129.77755737 C124.37135503 125.1706719 123.10430583 120.56118429 121.83917236 115.95111084 C120.56071405 111.29913009 119.27311458 106.64968253 117.98632812 102 C113.6850381 86.44673412 113.6850381 86.44673412 111.70552158 79.20686531 C110.82784754 75.99750673 109.94047878 72.79294788 109.02120972 69.59515381 C108.74536041 68.62902161 108.46951111 67.6628894 108.18530273 66.66748047 C107.83579811 65.47105423 107.83579811 65.47105423 107.47923279 64.25045776 C106.95282913 61.77848752 106.91545555 59.52017333 107 57 C106.01 57 105.02 57 104 57 C103.89523346 57.5798465 103.79046692 58.15969299 103.68252563 58.7571106 C102.36630499 65.70860152 100.55426139 72.44994191 98.5859375 79.2421875 C98.25260406 80.40460968 97.91927063 81.56703186 97.57583618 82.76467896 C96.51263802 86.46920831 95.44396431 90.17213088 94.375 93.875 C93.68061748 96.29025764 92.9866043 98.70562149 92.29296875 101.12109375 C90.90573815 105.95089519 89.51561345 110.77985148 88.12402344 115.60839844 C86.64851268 120.73384783 85.18406739 125.86230003 83.72753906 130.99316406 C83.35683851 132.29737823 82.98612139 133.60158769 82.61538696 134.90579224 C81.91075253 137.38666725 81.20770793 139.8679945 80.50643921 142.349823 C80.19187775 143.45657379 79.87731628 144.56332458 79.55322266 145.70361328 C79.27660797 146.68081329 78.99999329 147.65801331 78.71499634 148.66482544 C78 151 78 151 77 153 C66.11 153 55.22 153 44 153 C39.50017071 142.87538409 39.50017071 142.87538409 37.95141602 137.66333008 C37.59833374 136.48600815 37.24525146 135.30868622 36.88146973 134.09568787 C36.50937378 132.83305618 36.13727783 131.5704245 35.75390625 130.26953125 C35.34629149 128.90312121 34.93811307 127.53687922 34.52941895 126.17079163 C33.42877847 122.48639143 32.33544284 118.79986373 31.24391556 115.11275482 C29.38881991 108.85050757 27.52339056 102.59132137 25.66021538 96.3314743 C24.93205022 93.88402639 24.20480251 91.43630695 23.47755432 88.98858643 C20.24403183 78.11570942 16.95472666 67.26084625 13.63202095 56.41491508 C12.15032861 51.57359717 10.67635391 46.72992267 9.202178 41.88631153 C8.01772541 37.99741979 6.82784951 34.1103463 5.62625122 30.22671509 C4.4980236 26.57989895 3.38336027 22.92921246 2.27885437 19.27514458 C1.87060695 17.93369961 1.45721702 16.59380752 1.03837585 15.2556324 C0.46792344 13.4309262 -0.08286339 11.60010636 -0.63256836 9.76904297 C-0.94673203 8.74551727 -1.26089569 7.72199158 -1.58457947 6.66744995 C-2 4 -2 4 0 0 Z " fill="#FA6124" transform="translate(12,888)"/>
<path d="M0 0 C-0.55286102 11.52657256 -1.39624586 22.96960935 -2.63891602 34.44287109 C-2.80380803 35.9970293 -2.96829991 37.55123 -3.13243103 39.10546875 C-3.5751751 43.28749188 -4.02340686 47.46890991 -4.47266507 51.65023756 C-4.95273191 56.12792928 -5.42746311 60.60618703 -5.90281677 65.0843811 C-6.81049088 73.62803877 -7.72266533 82.17120942 -8.63657087 90.71420252 C-9.74375082 101.06559412 -10.84566331 111.41754484 -11.94726562 121.76953125 C-12.3426868 125.48505019 -12.73814408 129.2005653 -13.13363647 132.91607666 C-13.23131486 133.83375832 -13.32899325 134.75143998 -13.42963159 135.69693017 C-14.11771127 142.16018576 -14.80711196 148.62329969 -15.49697876 155.08636475 C-17.46001951 173.48206609 -19.41169217 191.87887553 -21.33935547 210.27832031 C-21.5275556 212.07344736 -21.71576598 213.86857333 -21.90398693 215.6636982 C-22.70448004 223.30021396 -23.50405536 230.93682042 -24.2991786 238.57389736 C-24.61835385 241.63630971 -24.93897037 244.69857 -25.25993657 247.76079512 C-25.40724974 249.16956411 -25.55390969 250.57840159 -25.69985652 251.98731279 C-25.89885298 253.90794518 -26.10030057 255.82832312 -26.30186462 257.74868774 C-26.41329772 258.81818476 -26.52473082 259.88768177 -26.63954067 260.98958778 C-27.00156116 264.01303819 -27.47544692 267.00084789 -28 270 C-31.21188762 268.66533922 -32.55265528 267.6343337 -33.99194336 264.46948242 C-34.33058914 263.74123764 -34.66923492 263.01299286 -35.0181427 262.26268005 C-35.37180405 261.46830032 -35.72546539 260.67392059 -36.08984375 259.85546875 C-36.47045456 259.02737198 -36.85106537 258.19927521 -37.24320984 257.34608459 C-38.48690853 254.63197057 -39.71226546 251.90999286 -40.9375 249.1875 C-41.79827911 247.29933146 -42.66010316 245.41163895 -43.52294922 243.52441406 C-46.03273904 238.02408944 -48.51965364 232.51365324 -51 227 C-51.32498474 226.27854797 -51.64996948 225.55709595 -51.98480225 224.81378174 C-54.38332528 219.48892064 -56.77375803 214.16049266 -59.15063477 208.82592773 C-63.48665001 199.10040715 -67.9206478 189.42177536 -72.375 179.75 C-78.42219167 166.61852119 -84.43552886 153.47253035 -90.40795898 140.30688477 C-93.89890682 132.6131518 -97.40508034 124.92668826 -100.92913818 117.24806213 C-104.27861776 109.94828691 -107.61076188 102.64068453 -110.93786621 95.33068848 C-112.04909279 92.89227346 -113.16354494 90.45534915 -114.27832031 88.01855469 C-116.18695788 83.84329885 -118.08266049 79.66237064 -119.97000122 75.47744751 C-120.69368572 73.87775687 -121.4214007 72.279883 -122.15328979 70.68392944 C-123.16654649 68.4724419 -124.16503645 66.2548516 -125.16015625 64.03515625 C-125.46446564 63.37953705 -125.76877502 62.72391785 -126.08230591 62.0484314 C-128.05049945 57.60018598 -128.05049945 57.60018598 -127.82644653 54.93731689 C-126.69367508 52.2819276 -125.51058375 51.91951741 -122.87817383 50.79956055 C-121.98945084 50.41277634 -121.10072784 50.02599213 -120.18507385 49.62748718 C-119.20231979 49.2180336 -118.21956573 48.80858002 -117.20703125 48.38671875 C-116.17807236 47.94403152 -115.14911346 47.5013443 -114.088974 47.04524231 C-110.66943582 45.57827751 -107.24119201 44.13292551 -103.8125 42.6875 C-101.43010373 41.67058256 -99.04827491 40.65233477 -96.66699219 39.6328125 C-91.67109861 37.49706893 -86.67157466 35.37022309 -81.66845703 33.25146484 C-74.73861549 30.31651161 -67.81743088 27.36161393 -60.8986721 24.4006443 C-48.19242478 18.96368579 -35.48302236 13.53407645 -22.74975586 8.16064453 C-20.94463067 7.39871919 -19.1400858 6.63541719 -17.33618164 5.87060547 C-14.93997544 4.85603912 -12.54091127 3.84861792 -10.140625 2.84375 C-9.44966736 2.55004517 -8.75870972 2.25634033 -8.04681396 1.95373535 C-5.18686066 0.76540941 -3.13195593 0 0 0 Z " fill="#000000" transform="translate(677,383)"/>
<path d="M0 0 C0.66709488 -0.00671722 1.33418976 -0.01343445 2.02149963 -0.02035522 C4.2388548 -0.03942528 6.4559076 -0.04326661 8.67333984 -0.04541016 C10.22399009 -0.05184169 11.77463913 -0.05857031 13.32528687 -0.06558228 C16.58879394 -0.07758434 19.85219506 -0.08126109 23.11572266 -0.08007812 C27.25312053 -0.079877 31.38981534 -0.10694793 35.52704811 -0.14162254 C38.73946086 -0.16413764 41.95171253 -0.16790794 45.16419601 -0.16685867 C46.68609366 -0.16918676 48.20799773 -0.17784848 49.72981644 -0.19352341 C65.21540837 -0.33782864 81.33855373 1.54382115 93.19677734 12.47802734 C103.23296795 23.21441729 105.12674323 34.51496483 104.81787109 48.64208984 C104.33771625 58.54403819 100.62900717 65.5229562 93.50927734 72.29052734 C91.55612584 74.04280768 89.57976925 75.67453366 87.50927734 77.29052734 C88.00556641 77.63083984 88.50185547 77.97115234 89.01318359 78.32177734 C97.21333639 84.17236075 103.51156915 90.4966517 106.06396484 100.45458984 C108.14188948 113.68768885 107.2630996 127.0853835 99.29833984 138.18896484 C91.01947562 147.91391889 79.87383831 151.80733475 67.50927734 153.29052734 C61.69225147 153.55981115 55.88601157 153.5487629 50.06396484 153.52099609 C48.40056392 153.51980171 46.73716232 153.51935168 45.07376099 153.51960754 C41.61276949 153.51805387 38.15188307 153.50984349 34.69091797 153.49633789 C30.24652782 153.47921608 25.80225124 153.47552792 21.35783195 153.47628307 C17.93503733 153.47601205 14.5122677 153.47054389 11.08948135 153.46328163 C9.44915073 153.46009454 7.80881728 153.45812746 6.16848373 153.45738792 C3.88994178 153.4552323 1.61152342 153.44650909 -0.66699219 153.43579102 C-2.61244431 153.43007332 -2.61244431 153.43007332 -4.59719849 153.42424011 C-7.49072266 153.29052734 -7.49072266 153.29052734 -8.49072266 152.29052734 C-8.5917276 150.35886057 -8.62149556 148.42345446 -8.62443542 146.489151 C-8.62870041 145.22854355 -8.63296539 143.9679361 -8.63735962 142.66912842 C-8.63701006 141.25915524 -8.6365485 139.84918209 -8.63598633 138.43920898 C-8.6389762 136.96449193 -8.64237833 135.48977565 -8.64616394 134.01506042 C-8.6550256 129.99858036 -8.65734296 125.98212157 -8.65797973 121.96563268 C-8.65892703 118.61803156 -8.66260325 115.27043544 -8.66615182 111.92283624 C-8.67430461 104.02790064 -8.67673531 96.13297644 -8.67602539 88.23803711 C-8.67542437 80.08158182 -8.68597916 71.92519262 -8.70176905 63.76875407 C-8.71482454 56.77682529 -8.72021013 49.78491816 -8.71956998 42.79297727 C-8.71931441 38.61223146 -8.72219817 34.43154434 -8.73274803 30.25081062 C-8.74239563 26.32005861 -8.74253132 22.38942181 -8.7352314 18.45866585 C-8.73418138 17.01303948 -8.73657301 15.56740606 -8.74259186 14.12179184 C-8.75025573 12.15417132 -8.74449319 10.18651193 -8.73796082 8.21888733 C-8.73850558 7.11587815 -8.73905035 6.01286898 -8.73961163 4.87643528 C-8.2093232 -0.6331582 -4.65414206 0.02935719 0 0 Z " fill="#FA6124" transform="translate(386.49072265625,887.70947265625)"/>
<path d="M0 0 C1.43603709 -0.03798612 2.87166327 -0.09920532 4.30566406 -0.18457031 C15.9497158 -0.87196754 15.9497158 -0.87196754 20.34790039 2.54516602 C22.08714354 4.88559782 23.55030181 7.26957952 24.9465332 9.8274231 C26.67234222 12.85896309 28.64314326 15.71965798 30.5872345 18.61431885 C32.34078644 21.22923964 34.06956275 23.85910553 35.79272461 26.49414062 C46.30175003 42.55490496 56.86393682 58.5801345 67.5864563 74.49932861 C68.68061524 76.12448034 69.77313289 77.75073834 70.86398315 79.37811279 C72.37116118 81.62543765 73.88427046 83.86863621 75.39941406 86.1105957 C75.84387878 86.77509232 76.28834351 87.43958893 76.74627686 88.1242218 C78.89331008 91.47209619 78.89331008 91.47209619 82.04394531 93.75512695 C82.37394531 94.08512695 82.70394531 94.41512695 83.04394531 94.75512695 C83.03950409 93.60698517 83.03506287 92.45884338 83.03048706 91.27590942 C82.99000741 80.47489399 82.95999293 69.67389387 82.94032097 58.8728199 C82.92986758 53.31939669 82.91568008 47.76603454 82.89306641 42.21264648 C82.8713934 36.85696688 82.85938842 31.50134613 82.85419083 26.14562607 C82.85048508 24.09861194 82.84324907 22.05160116 82.8324852 20.00461197 C82.8180439 17.14549963 82.81596427 14.28663296 82.81689453 11.42749023 C82.80970398 10.57441284 82.80251343 9.72133545 82.79510498 8.84240723 C82.81584099 2.98323128 82.81584099 2.98323128 85.04394531 0.75512695 C88.0090332 0.51220703 88.0090332 0.51220703 91.76660156 0.5246582 C92.42728134 0.52511642 93.08796112 0.52557465 93.7686615 0.52604675 C95.16488441 0.52906774 96.56110398 0.53694954 97.95727539 0.54931641 C100.1015203 0.56758499 102.2453338 0.56982601 104.38964844 0.56958008 C114.8965132 0.60769484 114.8965132 0.60769484 116.04394531 1.75512695 C116.14061468 3.71674299 116.16581629 5.6818934 116.16419983 7.64588928 C116.16626183 9.5663784 116.16626183 9.5663784 116.16836548 11.52566528 C116.16482586 12.95770287 116.16119105 14.38974022 116.1574707 15.82177734 C116.15718884 17.31944273 116.15734655 18.81710825 116.15791321 20.31477356 C116.15820122 24.39310867 116.15230395 28.47141463 116.14533925 32.54974294 C116.13910627 36.80720324 116.13850196 41.06466414 116.13731384 45.3221283 C116.13420036 53.38985882 116.12598675 61.45757587 116.11596435 69.52530044 C116.10480373 78.70773474 116.0992929 87.89016968 116.09426892 97.07260907 C116.08380415 115.96678935 116.06620439 134.86095707 116.04394531 153.75512695 C111.45429645 153.92889049 106.86658222 154.05551638 102.27441406 154.13964844 C100.71450433 154.17473347 99.1548229 154.22241777 97.59570312 154.28320312 C84.6703585 154.77430019 84.6703585 154.77430019 80.76011658 152.32399178 C79.21202865 150.54097026 78.12108766 148.84998604 77.04394531 146.75512695 C76.47361572 145.97273651 75.90328613 145.19034607 75.31567383 144.38424683 C74.85604248 143.68147614 74.39641113 142.97870544 73.92285156 142.25463867 C73.38789062 141.44203583 72.85292969 140.62943298 72.30175781 139.79220581 C71.74230469 138.93176666 71.18285156 138.07132751 70.60644531 137.18481445 C70.00445313 136.26789825 69.40246094 135.35098206 68.78222656 134.40628052 C66.86485264 131.48388847 64.95416754 128.55719751 63.04394531 125.63012695 C60.54544697 121.81403836 58.0445378 117.99953103 55.54394531 114.18481445 C54.92500397 113.23978058 54.30606262 112.2947467 53.66836548 111.32107544 C44.2876298 97.00739957 34.87315083 82.71476901 24.98144531 68.74731445 C24.45808594 67.99450195 23.93472656 67.24168945 23.39550781 66.46606445 C22.93998535 65.81943848 22.48446289 65.1728125 22.01513672 64.5065918 C21.04394531 62.75512695 21.04394531 62.75512695 21.04394531 59.75512695 C20.38394531 59.75512695 19.72394531 59.75512695 19.04394531 59.75512695 C19.04394531 90.77512695 19.04394531 121.79512695 19.04394531 153.75512695 C8.15394531 153.75512695 -2.73605469 153.75512695 -13.95605469 153.75512695 C-15.73670333 151.97447831 -15.08610738 149.36192299 -15.08976746 146.95375061 C-15.09403244 145.69314316 -15.09829742 144.43253571 -15.10269165 143.13372803 C-15.10234209 141.72375485 -15.10188053 140.3137817 -15.10131836 138.90380859 C-15.10430824 137.42909154 -15.10771036 135.95437526 -15.11149597 134.47966003 C-15.12035763 130.46317997 -15.12267499 126.44672118 -15.12331176 122.43023229 C-15.12425906 119.08263117 -15.12793529 115.73503505 -15.13148385 112.38743585 C-15.13963664 104.49250025 -15.14206734 96.59757605 -15.14135742 88.70263672 C-15.1407564 80.54618143 -15.15131119 72.38979223 -15.16710109 64.23335367 C-15.18015657 57.24142489 -15.18554216 50.24951777 -15.18490201 43.25757688 C-15.18464644 39.07683107 -15.18753021 34.89614395 -15.19808006 30.71541023 C-15.20772766 26.78465822 -15.20786335 22.85402141 -15.20056343 18.92326546 C-15.19951341 17.47763909 -15.20190504 16.03200567 -15.20792389 14.58639145 C-15.21558776 12.61877093 -15.20982522 10.65111154 -15.20329285 8.68348694 C-15.20383761 7.58047776 -15.20438238 6.47746859 -15.20494366 5.34103489 C-14.52115895 -1.76335512 -5.49955815 0.10796908 0 0 Z " fill="#FA6124" transform="translate(657.9560546875,887.244873046875)"/>
<path d="M0 0 C0.87020782 0.00561951 1.74041565 0.01123901 2.63699341 0.01702881 C3.5525148 0.01513046 4.46803619 0.01323212 5.41130066 0.01127625 C8.44747389 0.00756151 11.48340968 0.01828183 14.51956177 0.02947998 C16.62181063 0.0306714 18.72406002 0.03112502 20.8263092 0.03086853 C25.23556848 0.03243456 29.64474671 0.04073389 34.0539856 0.05413818 C39.71940066 0.0711386 45.38472664 0.0749523 51.05016422 0.074193 C55.3917171 0.07446429 59.73325032 0.07993861 64.07479668 0.08719444 C66.16449268 0.09038712 68.25419092 0.09234991 70.34388924 0.09308815 C73.2580359 0.0952448 76.17208606 0.10397402 79.08621216 0.11468506 C79.95844421 0.11423187 80.83067627 0.11377869 81.7293396 0.11331177 C87.68243142 0.14547463 87.68243142 0.14547463 88.79690552 1.25994873 C88.79690552 11.15994873 88.79690552 21.05994873 88.79690552 31.25994873 C68.33690552 31.58994873 47.87690552 31.91994873 26.79690552 32.25994873 C26.79690552 41.49994873 26.79690552 50.73994873 26.79690552 60.25994873 C32.62669067 60.35082764 32.62669067 60.35082764 38.57424927 60.44354248 C42.32060811 60.50527457 46.06693501 60.56868598 49.81326294 60.63226318 C52.42553896 60.67568998 55.0378448 60.71735911 57.650177 60.75726318 C61.3957927 60.8147788 65.14125721 60.87852637 68.88674927 60.94354248 C70.65078346 60.96861122 70.65078346 60.96861122 72.45045471 60.9941864 C73.53149979 61.01413162 74.61254486 61.03407684 75.72634888 61.05462646 C77.16197426 61.07794289 77.16197426 61.07794289 78.62660217 61.10173035 C80.79690552 61.25994873 80.79690552 61.25994873 81.79690552 62.25994873 C81.88466157 64.405537 81.90385771 66.55399294 81.89456177 68.70135498 C81.88972778 70.65911865 81.88972778 70.65911865 81.88479614 72.65643311 C81.87643953 74.04510563 81.86797457 75.4337775 81.85940552 76.82244873 C81.85439218 78.21502529 81.84982898 79.60760355 81.84573364 81.00018311 C81.83389986 84.42014743 81.81741432 87.84002717 81.79690552 91.25994873 C80.78546227 91.27540993 80.78546227 91.27540993 79.75358582 91.29118347 C72.7624697 91.39900642 65.77148884 91.51362316 58.7805481 91.63226318 C56.16827208 91.67568998 53.55596624 91.71735911 50.94363403 91.75726318 C47.19801833 91.8147788 43.45255382 91.87852637 39.70706177 91.94354248 C38.53103897 91.96025497 37.35501617 91.97696747 36.14335632 91.9941864 C35.06231125 92.01413162 33.98126617 92.03407684 32.86746216 92.05462646 C31.43183678 92.07794289 31.43183678 92.07794289 29.96720886 92.10173035 C27.81827858 92.02063483 27.81827858 92.02063483 26.79690552 93.25994873 C26.70923439 95.3325695 26.68994679 97.40815167 26.69924927 99.48260498 C26.70247192 100.74266357 26.70569458 102.00272217 26.70901489 103.30096436 C26.71737148 104.64145982 26.72583644 105.98195461 26.73440552 107.32244873 C26.73941892 108.66684815 26.7439821 110.01124933 26.74807739 111.35565186 C26.75991064 114.65712814 26.77639581 117.95851676 26.79690552 121.25994873 C27.55889755 121.2702562 28.32088959 121.28056366 29.10597229 121.29118347 C36.27250292 121.38899283 43.43894379 121.49148313 50.60533047 121.59928799 C54.29000742 121.65455038 57.97469225 121.70797552 61.65945435 121.75726318 C65.21268393 121.80485805 68.76581426 121.8571988 72.31892586 121.91288948 C73.67733363 121.93333523 75.03576863 121.95204458 76.39422417 121.96902275 C78.29080257 121.9930175 80.1872935 122.02365205 82.08377075 122.05462646 C83.16520859 122.07017075 84.24664642 122.08571503 85.3608551 122.10173035 C87.79690552 122.25994873 87.79690552 122.25994873 88.79690552 123.25994873 C88.88474094 125.47850137 88.90385161 127.69983369 88.89456177 129.92010498 C88.89314682 130.58457138 88.89173187 131.24903778 88.89027405 131.93363953 C88.8846607 134.06328772 88.87210606 136.19283212 88.85940552 138.32244873 C88.85439223 139.76320242 88.84982903 141.20395776 88.84573364 142.64471436 C88.83468697 146.18315975 88.81741344 149.72154412 88.79690552 153.25994873 C76.29733452 153.28307016 63.79776857 153.30086279 51.29818058 153.3117609 C45.49476939 153.31699017 39.69137277 153.3240886 33.88796997 153.33538818 C28.29239699 153.34621551 22.69683806 153.35222523 17.10125542 153.35482597 C14.96131608 153.3566805 12.82137755 153.36030164 10.68144417 153.36567879 C7.69525586 153.37288717 4.70912645 153.37393976 1.72293091 153.37347412 C0.82885529 153.3770694 -0.06522034 153.38066467 -0.98638916 153.3843689 C-7.08904232 153.37400089 -7.08904232 153.37400089 -8.20309448 152.25994873 C-8.30409942 150.32828196 -8.33386738 148.39287585 -8.33680725 146.45857239 C-8.34107224 145.19796494 -8.34533722 143.93735748 -8.34973145 142.6385498 C-8.34938188 141.22857663 -8.34892032 139.81860348 -8.34835815 138.40863037 C-8.35134803 136.93391331 -8.35475016 135.45919704 -8.35853577 133.98448181 C-8.36739742 129.96800175 -8.36971478 125.95154296 -8.37035155 121.93505406 C-8.37129886 118.58745294 -8.37497508 115.23985683 -8.37852365 111.89225763 C-8.38667643 103.99732202 -8.38910713 96.10239783 -8.38839722 88.2074585 C-8.38779619 80.05100321 -8.39835099 71.89461401 -8.41414088 63.73817545 C-8.42719637 56.74624667 -8.43258195 49.75433954 -8.43194181 42.76239866 C-8.43168623 38.58165285 -8.43457 34.40096573 -8.44511986 30.22023201 C-8.45476745 26.28948 -8.45490314 22.35884319 -8.44760323 18.42808723 C-8.44655321 16.98246086 -8.44894483 15.53682745 -8.45496368 14.09121323 C-8.46262755 12.12359271 -8.45686502 10.15593331 -8.45033264 8.18830872 C-8.45087741 7.08529954 -8.45142218 5.98229036 -8.45198345 4.84585667 C-7.93324797 -0.54370402 -4.622787 0.02447536 0 0 Z " fill="#FA6124" transform="translate(256.2030944824219,887.7400512695313)"/>
<path d="M0 0 C1.34739006 0.00842926 1.34739006 0.00842926 2.72200012 0.01702881 C4.13917328 0.01418129 4.13917328 0.01418129 5.5849762 0.01127625 C8.71854358 0.00756117 11.85188096 0.01828235 14.98542786 0.02947998 C17.15493747 0.03067139 19.3244476 0.03112503 21.49395752 0.03086853 C26.0444511 0.03243462 30.59486614 0.04073441 35.14533997 0.05413818 C40.99235682 0.07113828 46.83928735 0.07495232 52.68632603 0.074193 C57.16684806 0.07446428 61.64735103 0.07993854 66.12786674 0.08719444 C68.28454888 0.09038723 70.44123318 0.09234993 72.59791756 0.09308815 C75.60546206 0.0952447 78.61291305 0.10397372 81.62043762 0.11468506 C82.52072189 0.11423187 83.42100616 0.11377869 84.34857178 0.11331177 C90.49204765 0.14547477 90.49204765 0.14547477 91.60652161 1.25994873 C94.44556592 25.2402493 94.44556592 25.2402493 89.54011536 31.95916748 C86.70352723 34.46488757 83.86760956 36.34618372 80.60652161 38.25994873 C78.68737019 39.79371799 76.79078196 41.35619028 74.91902161 42.94744873 C74.02183411 43.67190186 73.12464661 44.39635498 72.20027161 45.14276123 C68.5881793 48.09118598 65.08718735 51.15826665 61.60652161 54.25994873 C63.95973401 56.61316113 66.14327177 57.50152799 69.16902161 58.88494873 C81.66884913 65.11246137 89.94856407 74.96198224 94.54402161 88.25994873 C94.93426898 89.58317161 95.28923068 90.91736232 95.60652161 92.25994873 C95.78827942 93.02307373 95.97003723 93.78619873 96.15730286 94.57244873 C98.32194378 107.52264835 96.76386818 121.76175579 89.46199036 132.84979248 C79.02080757 146.41233938 66.84888071 153.06017291 50.05574036 155.84979248 C32.4380657 157.94475946 16.05668622 154.44694582 1.73152161 143.82244873 C-7.70199884 136.00658973 -13.23973325 126.39923956 -15.39347839 114.25994873 C-15.62233801 111.24094954 -15.81733493 108.26434357 -15.39347839 105.25994873 C-13.39347839 103.25994873 -13.39347839 103.25994873 -10.41252136 103.03289795 C-9.16615906 103.04337158 -7.91979675 103.05384521 -6.63566589 103.06463623 C-5.64108871 103.06888107 -5.64108871 103.06888107 -4.62641907 103.07321167 C-2.50692256 103.08441438 -0.38784735 103.10951822 1.73152161 103.13494873 C3.16771342 103.14497845 4.60391186 103.15410432 6.04011536 103.16229248 C9.56238789 103.18435373 13.08441364 103.21888379 16.60652161 103.25994873 C16.81003235 103.87265625 17.01354309 104.48536377 17.22322083 105.11663818 C17.62565002 106.32646362 17.62565002 106.32646362 18.03620911 107.56072998 C18.30159485 108.3590625 18.56698059 109.15739502 18.84040833 109.97991943 C21.32250458 117.36688468 24.79428853 120.63541571 31.60652161 124.25994873 C38.06813784 126.3799682 45.54297578 126.02611218 51.78230286 123.38104248 C56.05426281 120.75566238 59.0341163 116.97716465 60.60652161 112.25994873 C61.54135403 100.06053233 61.54135403 100.06053233 56.60652161 89.25994873 C51.12211825 83.29162743 42.73412657 82.14442672 34.97761536 81.78338623 C32.6667442 81.72046972 30.35546538 81.67116609 28.04402161 81.63494873 C25.70929679 81.58422141 23.37464918 81.52975127 21.04011536 81.47088623 C20.01974182 81.45332275 18.99936829 81.43575928 17.94807434 81.41766357 C15.60652161 81.25994873 15.60652161 81.25994873 14.60652161 80.25994873 C14.27255173 77.20814048 14.28147715 74.14017335 14.23152161 71.07244873 C14.19413879 70.22102295 14.15675598 69.36959717 14.11824036 68.49237061 C14.05979104 64.29376112 14.11515334 61.2606226 16.81355286 57.90838623 C19.36052446 55.49321596 21.90188834 53.23022837 24.66902161 51.07244873 C29.48884949 47.22572973 34.04881107 43.1903117 38.54621887 38.97796631 C41.12928001 36.5684897 43.73048097 34.31329217 46.60652161 32.25994873 C44.94200606 30.59543318 42.93250153 31.10112155 40.64363098 31.07049561 C39.58583435 31.05377808 38.52803772 31.03706055 37.43818665 31.01983643 C36.28717468 31.00626099 35.13616272 30.99268555 33.95027161 30.97869873 C32.77766785 30.96028931 31.60506409 30.94187988 30.39692688 30.9229126 C26.63351124 30.86394295 22.87004962 30.81121512 19.10652161 30.75994873 C14.15850294 30.69254733 9.21063837 30.61887832 4.26277161 30.54119873 C3.11175964 30.52762329 1.96074768 30.51404785 0.77485657 30.50006104 C-0.28294006 30.48334351 -1.34073669 30.46662598 -2.43058777 30.44940186 C-3.36689026 30.43687378 -4.30319275 30.4243457 -5.26786804 30.41143799 C-7.39347839 30.25994873 -7.39347839 30.25994873 -8.39347839 29.25994873 C-8.64728073 24.78662915 -8.57870561 20.30211413 -8.58097839 15.82244873 C-8.59934753 13.92269287 -8.59934753 13.92269287 -8.61808777 11.98455811 C-8.62002136 10.77735107 -8.62195496 9.57014404 -8.62394714 8.32635498 C-8.62805603 7.21204102 -8.63216492 6.09772705 -8.63639832 4.949646 C-8.13515762 -0.60027234 -4.76236844 0.02443579 0 0 Z " fill="#FA6124" transform="translate(521.3934783935547,887.7400512695313)"/>
<path d="M0 0 C0.87020782 0.00561951 1.74041565 0.01123901 2.63699341 0.01702881 C3.5525148 0.01513046 4.46803619 0.01323212 5.41130066 0.01127625 C8.44747389 0.00756151 11.48340968 0.01828183 14.51956177 0.02947998 C16.62181063 0.0306714 18.72406002 0.03112502 20.8263092 0.03086853 C25.23556848 0.03243456 29.64474671 0.04073389 34.0539856 0.05413818 C39.71940066 0.0711386 45.38472664 0.0749523 51.05016422 0.074193 C55.3917171 0.07446429 59.73325032 0.07993861 64.07479668 0.08719444 C66.16449268 0.09038712 68.25419092 0.09234991 70.34388924 0.09308815 C73.2580359 0.0952448 76.17208606 0.10397402 79.08621216 0.11468506 C79.95844421 0.11423187 80.83067627 0.11377869 81.7293396 0.11331177 C87.68243142 0.14547463 87.68243142 0.14547463 88.79690552 1.25994873 C88.79690552 11.15994873 88.79690552 21.05994873 88.79690552 31.25994873 C68.00690552 31.58994873 47.21690552 31.91994873 25.79690552 32.25994873 C25.46690552 42.15994873 25.13690552 52.05994873 24.79690552 62.25994873 C28.61124146 62.32053467 32.42557739 62.38112061 36.35549927 62.44354248 C40.0323598 62.50527495 43.7091878 62.56868621 47.38601685 62.63226318 C49.94978973 62.67568939 52.51359298 62.71735858 55.0774231 62.75726318 C58.7535418 62.8147802 62.42950651 62.87852736 66.10549927 62.94354248 C67.25964828 62.96025497 68.4137973 62.97696747 69.60292053 62.9941864 C71.19445702 63.02410423 71.19445702 63.02410423 72.81814575 63.05462646 C74.22712379 63.07794289 74.22712379 63.07794289 75.66456604 63.10173035 C77.79690552 63.25994873 77.79690552 63.25994873 78.79690552 64.25994873 C78.88466157 66.405537 78.90385771 68.55399294 78.89456177 70.70135498 C78.88972778 72.65911865 78.88972778 72.65911865 78.88479614 74.65643311 C78.87643953 76.04510563 78.86797457 77.4337775 78.85940552 78.82244873 C78.85439218 80.21502529 78.84982898 81.60760355 78.84573364 83.00018311 C78.83389986 86.42014743 78.81741432 89.84002717 78.79690552 93.25994873 C75.79121673 94.12445345 73.07568708 94.40286554 69.9524231 94.44940186 C68.99495682 94.46611938 68.03749054 94.48283691 67.05101013 94.50006104 C65.51177132 94.52042419 65.51177132 94.52042419 63.94143677 94.54119873 C62.88405807 94.55960815 61.82667938 94.57801758 60.73725891 94.59698486 C56.21175269 94.6756984 51.68610069 94.74363863 47.16043091 94.81219482 C43.85818754 94.86375911 40.5560786 94.92105052 37.25393677 94.97869873 C35.70558891 94.99906189 35.70558891 94.99906189 34.1259613 95.01983643 C33.17795151 95.03655396 32.22994171 95.05327148 31.25320435 95.07049561 C29.99556023 95.08928772 29.99556023 95.08928772 28.71250916 95.10845947 C26.78839773 95.05206958 26.78839773 95.05206958 25.79690552 96.25994873 C25.67367794 98.0389823 25.61901533 99.82281076 25.59158325 101.605896 C25.57163803 102.74700333 25.55169281 103.88811066 25.53114319 105.063797 C25.50607445 106.9262632 25.50607445 106.9262632 25.48049927 108.82635498 C25.45971817 110.09011459 25.43893707 111.35387421 25.41752625 112.65592957 C25.36306837 116.02113506 25.31286272 119.38635046 25.26467896 122.75164795 C25.21450793 126.18350774 25.15879897 129.61527704 25.10354614 133.04705811 C24.99620361 139.78461634 24.89446227 146.52224209 24.79690552 153.25994873 C20.25792847 153.28460265 15.71899009 153.30278662 11.17996216 153.31488037 C9.63470786 153.31992013 8.08945835 153.32675193 6.54421997 153.33538818 C4.32765523 153.34746949 2.11115333 153.35318046 -0.10543823 153.35760498 C-1.14763771 153.36534691 -1.14763771 153.36534691 -2.21089172 153.37324524 C-3.87538778 153.3734415 -5.53974947 153.32184002 -7.20309448 153.25994873 C-8.98374312 151.47930009 -8.33314717 148.86674477 -8.33680725 146.45857239 C-8.34107224 145.19796494 -8.34533722 143.93735748 -8.34973145 142.6385498 C-8.34938188 141.22857663 -8.34892032 139.81860348 -8.34835815 138.40863037 C-8.35134803 136.93391331 -8.35475016 135.45919704 -8.35853577 133.98448181 C-8.36739742 129.96800175 -8.36971478 125.95154296 -8.37035155 121.93505406 C-8.37129886 118.58745294 -8.37497508 115.23985683 -8.37852365 111.89225763 C-8.38667643 103.99732202 -8.38910713 96.10239783 -8.38839722 88.2074585 C-8.38779619 80.05100321 -8.39835099 71.89461401 -8.41414088 63.73817545 C-8.42719637 56.74624667 -8.43258195 49.75433954 -8.43194181 42.76239866 C-8.43168623 38.58165285 -8.43457 34.40096573 -8.44511986 30.22023201 C-8.45476745 26.28948 -8.45490314 22.35884319 -8.44760323 18.42808723 C-8.44655321 16.98246086 -8.44894483 15.53682745 -8.45496368 14.09121323 C-8.46262755 12.12359271 -8.45686502 10.15593331 -8.45033264 8.18830872 C-8.45087741 7.08529954 -8.45142218 5.98229036 -8.45198345 4.84585667 C-7.93324797 -0.54370402 -4.622787 0.02447536 0 0 Z " fill="#FA6124" transform="translate(889.2030944824219,887.7400512695313)"/>
<path d="M0 0 C12.21 0 24.42 0 37 0 C40.66801295 7.0110121 44.33080659 14.02449405 47.98236084 21.04406738 C48.68659373 22.39762386 49.39107813 23.7510495 50.09576416 25.10437012 C52.43183857 29.59108248 54.7631335 34.08023026 57.08889771 38.57229614 C57.86373077 40.06724109 58.63999976 41.56144265 59.41769409 43.05490112 C60.51669527 45.16613792 61.61051054 47.27998376 62.703125 49.39453125 C63.0369368 50.0331308 63.3707486 50.67173035 63.7146759 51.3296814 C66 55.77184941 66 55.77184941 66 58 C66.66 58 67.32 58 68 58 C68 58.66 68 59.32 68 60 C68.66 60 69.32 60 70 60 C70.3544519 58.79754639 70.3544519 58.79754639 70.71606445 57.57080078 C72.31211732 53.13195894 74.38366577 49.05472756 76.54296875 44.8671875 C76.98965408 43.99409943 77.43633942 43.12101135 77.89656067 42.22146606 C78.84182288 40.37640524 79.78919049 38.53242174 80.73852539 36.68945312 C82.17059373 33.90783833 83.5945879 31.12220516 85.01757812 28.3359375 C97.99880093 3.00119907 97.99880093 3.00119907 101 0 C103.41323441 -0.11325718 105.79677404 -0.16417025 108.2109375 -0.16796875 C109.29684677 -0.17296135 109.29684677 -0.17296135 110.4046936 -0.17805481 C111.93971113 -0.18312739 113.47473972 -0.18546303 115.00976562 -0.18530273 C117.35825849 -0.18748445 119.70627815 -0.20562287 122.0546875 -0.22460938 C123.54426922 -0.22754419 125.03385318 -0.2295284 126.5234375 -0.23046875 C127.22665131 -0.23765427 127.92986511 -0.24483978 128.65438843 -0.25224304 C132.33294689 -0.23502296 133.85208974 -0.09860684 137 2 C136.42894531 3.0209375 135.85789062 4.041875 135.26953125 5.09375 C129.19010304 15.98722816 123.22513389 26.93981724 117.29296875 37.9140625 C112.72438197 46.36427088 108.11882649 54.79424816 103.51464844 63.22509766 C101.92771919 66.13242161 100.34255404 69.04070178 98.7578125 71.94921875 C98.22293213 72.93067871 97.68805176 73.91213867 97.13696289 74.92333984 C96.12287501 76.78420446 95.10902195 78.64519708 94.09545898 80.50634766 C93.63212158 81.35632324 93.16878418 82.20629883 92.69140625 83.08203125 C92.29123291 83.81655518 91.89105957 84.5510791 91.47875977 85.30786133 C90 88 90 88 88.74406433 89.8483429 C84.48231229 96.50993586 84.26702254 102.35371495 84.29296875 110.12890625 C84.27028679 111.97427223 84.27028679 111.97427223 84.24714661 113.85691833 C84.20440222 117.75896729 84.19544365 121.66024062 84.1875 125.5625 C84.16709353 128.21947037 84.13897874 130.87629014 84.11132812 133.53320312 C84.04860621 140.02214289 84.01356725 146.51078118 84 153 C79.46102295 153.02465392 74.92208457 153.04283789 70.38305664 153.05493164 C68.83780234 153.0599714 67.29255284 153.0668032 65.74731445 153.07543945 C63.53074971 153.08752076 61.31424782 153.09323173 59.09765625 153.09765625 C58.05545677 153.10539818 58.05545677 153.10539818 56.99220276 153.11329651 C55.3277067 153.11349277 53.66334501 153.06189129 52 153 C51 152 51 152 50.94944763 149.91767883 C50.98216263 148.99778671 51.01487762 148.07789459 51.04858398 147.13012695 C51.09507332 145.56215614 51.09507332 145.56215614 51.14250183 143.96250916 C51.19377983 142.24276634 51.19377983 142.24276634 51.24609375 140.48828125 C52.11574573 101.90780337 52.11574573 101.90780337 36.09521484 67.97460938 C32.87170144 63.39813683 30.24892261 58.52854856 27.5625 53.625 C26.52492368 51.80383997 25.48582191 49.98354832 24.4453125 48.1640625 C19.35825693 39.15036963 14.56074995 29.97790333 9.73461914 20.82275391 C9.38364166 20.15756744 9.03266418 19.49238098 8.67105103 18.80703735 C7.71536318 16.99452 6.76178177 15.18089242 5.80834961 13.3671875 C4.51091876 10.95134218 3.17434176 8.6096045 1.77172852 6.2578125 C0 3 0 3 0 0 Z " fill="#FA6124" transform="translate(1129,888)"/>
<path d="M0 0 C0.86703017 0.00054477 1.73406034 0.00108953 2.62736416 0.00165081 C3.62153851 -0.00254368 4.61571285 -0.00673817 5.64001369 -0.01105976 C6.73463924 -0.00544025 7.82926479 0.00017925 8.95706081 0.00596905 C10.1066679 0.0040707 11.25627499 0.00217236 12.44071865 0.00021648 C16.25604897 -0.00350049 20.07119066 0.00722546 23.88650417 0.01842022 C26.52683903 0.01961153 29.16717431 0.02006529 31.80750942 0.01980877 C37.34664177 0.02074582 42.88571939 0.02943591 48.42483425 0.04307842 C54.83687437 0.05881213 61.24885455 0.06407629 67.66091257 0.06334287 C73.82040812 0.06273339 79.97988087 0.06793869 86.13937092 0.07613468 C88.7649559 0.07932808 91.39054267 0.08129031 94.01612949 0.08202839 C97.6774606 0.0841844 101.33871483 0.09291233 105.00002956 0.1036253 C106.09667934 0.10317211 107.19332912 0.10271893 108.32321072 0.10225201 C109.31456524 0.10651699 110.30591976 0.11078197 111.32731533 0.1151762 C112.62729505 0.11768997 112.62729505 0.11768997 113.95353699 0.12025452 C115.91384792 0.24888897 115.91384792 0.24888897 116.91384792 1.24888897 C117.00168334 3.46744161 117.02079401 5.68877393 117.01150417 7.90904522 C117.00900661 9.12471172 117.00650906 10.34037823 117.00393581 11.59288311 C116.99483181 13.14999004 116.98572781 14.70709698 116.97634792 16.31138897 C116.95572292 21.24076397 116.93509792 26.17013897 116.91384792 31.24888897 C102.72384792 31.57888897 88.53384792 31.90888897 73.91384792 32.24888897 C73.58384792 72.17888897 73.25384792 112.10888897 72.91384792 153.24888897 C40.91384792 153.24888897 40.91384792 153.24888897 38.91384792 152.24888897 C38.58384792 112.64888897 38.25384792 73.04888897 37.91384792 32.24888897 C17.61884792 31.75388897 17.61884792 31.75388897 -3.08615208 31.24888897 C-5.84166719 28.49337386 -4.2718341 20.02914326 -4.27365208 16.31138897 C-4.28589817 14.99718975 -4.29814426 13.68299053 -4.31076145 12.32896709 C-4.31366184 10.45048077 -4.31366184 10.45048077 -4.31662083 8.53404522 C-4.32072971 7.37783672 -4.3248386 6.22162823 -4.329072 5.03038311 C-4.03746212 1.69137678 -3.45673858 0.41240718 0 0 Z " fill="#FA6124" transform="translate(998.0861520767212,887.7511110305786)"/>
<path d="M0 0 C3.99660204 3.4238353 5.76484058 7.20293335 7.87109375 11.90234375 C8.23027893 12.68462341 8.58946411 13.46690308 8.95953369 14.27288818 C10.12791942 16.82373279 11.28318232 19.38026207 12.4375 21.9375 C13.23813556 23.697273 14.03932771 25.45679287 14.84106445 27.21606445 C16.45828845 30.76875202 18.06980014 34.32395856 19.67773438 37.88085938 C21.47821401 41.85876727 23.29968697 45.82634476 25.13572693 49.78794861 C26.37453762 52.46326638 27.60395153 55.14282608 28.83108521 57.82351685 C29.39940586 59.06046434 29.97137805 60.295741 30.54708862 61.52926636 C31.337894 63.2267017 32.1127534 64.93153913 32.88671875 66.63671875 C33.53966919 68.05537231 33.53966919 68.05537231 34.20581055 69.50268555 C35.07784574 72.24478454 35.12028381 73.37979432 34 76 C32.25124627 77.85695421 30.5356357 79.51547229 28.625 81.1875 C28.08697754 81.66944824 27.54895508 82.15139648 26.99462891 82.64794922 C22.6540027 86.50529445 18.17114022 90.17882406 13.6484375 93.8203125 C11.02724881 95.97757399 8.50845719 98.21311 6 100.5 C1.70008209 104.41891252 -2.75919547 108.09170869 -7.28125 111.75 C-9.92147729 113.93501569 -12.4672972 116.19171391 -15 118.5 C-19.29991791 122.41891252 -23.75919547 126.09170869 -28.28125 129.75 C-30.92147729 131.93501569 -33.4672972 134.19171391 -36 136.5 C-40.29857479 140.41768842 -44.75609805 144.08967142 -49.27734375 147.74609375 C-52.7874362 150.65186612 -56.13627154 153.71642593 -59.5 156.7890625 C-62.90612961 159.80135837 -66.46843572 162.59262977 -70.06640625 165.37109375 C-72.09657508 166.86321702 -72.09657508 166.86321702 -73 169 C-73.66 169 -74.32 169 -75 169 C-74.42028929 163.62734284 -72.56747008 159.41763242 -70.2734375 154.60546875 C-69.89414093 153.79419525 -69.51484436 152.98292175 -69.12405396 152.14706421 C-68.30717056 150.40181106 -67.48698076 148.65810241 -66.66381836 146.915802 C-64.91198017 143.20733245 -63.17656947 139.49125434 -61.44012451 135.77555847 C-60.55621862 133.88456058 -59.67148992 131.99394709 -58.78594971 130.10371399 C-54.96693407 121.94888197 -51.21569614 113.7648321 -47.5 105.5625 C-46.90145651 104.24291632 -46.30290501 102.92333627 -45.7043457 101.60375977 C-43.80029074 97.40368446 -41.89977634 93.20201203 -40 89 C-39.63884094 88.20120422 -39.27768188 87.40240845 -38.90557861 86.57940674 C-37.74038706 84.00217952 -36.57527055 81.42491839 -35.41015625 78.84765625 C-34.20070951 76.1725337 -32.99126055 73.49741214 -31.78179932 70.82229614 C-30.97202071 69.03092902 -30.16240842 67.23948672 -29.35296631 65.44796753 C-25.05939173 55.94536468 -20.75554597 46.44778898 -16.41015625 36.96875 C-16.04497391 36.1718576 -15.67979156 35.37496521 -15.30354309 34.55392456 C-13.59295143 30.82242001 -11.87976953 27.09213798 -10.16235352 23.36376953 C-6.61255984 15.64073155 -3.19973354 7.87612466 0 0 Z " fill="#000000" transform="translate(512,488)"/>
<path d="M0 0 C1.23999756 0.00410889 2.47999512 0.00821777 3.75756836 0.01245117 C4.41824814 0.01290939 5.07892792 0.01336761 5.7596283 0.01383972 C7.1558512 0.01686071 8.55207078 0.02474251 9.94824219 0.03710938 C12.09248709 0.05537796 14.2363006 0.05761898 16.38061523 0.05737305 C26.88747999 0.0954878 26.88747999 0.0954878 28.03491211 1.24291992 C28.13158147 3.20453596 28.15678308 5.16968637 28.15516663 7.13368225 C28.15654129 8.41400833 28.15791595 9.69433441 28.15933228 11.01345825 C28.15579266 12.44549584 28.15215784 13.87753319 28.1484375 15.30957031 C28.14815564 16.8072357 28.14831334 18.30490122 28.14888 19.80256653 C28.14916801 23.88090164 28.14327075 27.9592076 28.13630605 32.03753591 C28.13007306 36.29499621 28.12946875 40.55245711 28.12828064 44.80992126 C28.12516716 52.87765179 28.11695355 60.94536883 28.10693115 69.01309341 C28.09577053 78.19552771 28.09025969 87.37796264 28.08523571 96.56040204 C28.07477095 115.45458232 28.05717118 134.34875004 28.03491211 153.24291992 C23.49593506 153.26757385 18.95699668 153.28575781 14.41796875 153.29785156 C12.87271445 153.30289132 11.32746495 153.30972312 9.78222656 153.31835938 C7.56566182 153.33044068 5.34915993 153.33615165 3.13256836 153.34057617 C2.09036888 153.3483181 2.09036888 153.3483181 1.02711487 153.35621643 C-0.63738119 153.35641269 -2.30174288 153.30481121 -3.96508789 153.24291992 C-5.74573653 151.46227128 -5.09514058 148.84971596 -5.09880066 146.44154358 C-5.10306564 145.18093613 -5.10733063 143.92032867 -5.11172485 142.621521 C-5.11137529 141.21154782 -5.11091373 139.80157467 -5.11035156 138.39160156 C-5.11334144 136.9168845 -5.11674357 135.44216823 -5.12052917 133.967453 C-5.12939083 129.95097294 -5.13170819 125.93451415 -5.13234496 121.91802526 C-5.13329226 118.57042413 -5.13696849 115.22282802 -5.14051706 111.87522882 C-5.14866984 103.98029322 -5.15110054 96.08536902 -5.15039062 88.19042969 C-5.1497896 80.0339744 -5.16034439 71.8775852 -5.17613429 63.72114664 C-5.18918978 56.72921786 -5.19457536 49.73731074 -5.19393522 42.74536985 C-5.19367964 38.56462404 -5.19656341 34.38393692 -5.20711327 30.2032032 C-5.21676086 26.27245119 -5.21689655 22.34181438 -5.20959663 18.41105843 C-5.20854661 16.96543206 -5.21093824 15.51979864 -5.21695709 14.07418442 C-5.22462096 12.1065639 -5.21885842 10.13890451 -5.21232605 8.17127991 C-5.21287082 7.06827073 -5.21341558 5.96526155 -5.21397686 4.82882786 C-4.84200487 0.96411132 -3.81371897 0.31244548 0 0 Z " fill="#FA6124" transform="translate(815.965087890625,887.757080078125)"/>
<path d="M0 0 C0.7336377 0.00016113 1.46727539 0.00032227 2.22314453 0.00048828 C4.43602503 -0.00384976 6.64685239 -0.04005478 8.859375 -0.078125 C16.38542681 -0.13848656 22.41996631 -0.00500248 28.83984375 4.37109375 C33.04809063 8.6872444 33.74712119 11.42392002 34.02734375 17.30859375 C33.9329481 22.40595908 32.82967751 25.25435823 29.40234375 29.12109375 C25.12638719 32.87559219 21.11762313 32.51815155 15.70703125 32.50390625 C14.5183696 32.50534134 14.5183696 32.50534134 13.30569458 32.50680542 C11.6329948 32.50748534 9.96029236 32.50564417 8.28759766 32.50146484 C5.71771377 32.49609974 3.14800354 32.50142343 0.578125 32.5078125 C-1.0455733 32.50715196 -2.6692715 32.50587131 -4.29296875 32.50390625 C-5.45229416 32.5069426 -5.45229416 32.5069426 -6.63504028 32.51004028 C-12.04519559 32.48605441 -12.04519559 32.48605441 -13.16015625 31.37109375 C-13.37804811 27.25531786 -13.34594813 23.13644452 -13.34545898 19.01538086 C-13.34764359 16.94559111 -13.36579116 14.87633582 -13.38476562 12.80664062 C-13.38669922 11.50919922 -13.38863281 10.21175781 -13.390625 8.875 C-13.39473389 7.67689697 -13.39884277 6.47879395 -13.40307617 5.24438477 C-12.79803334 -1.91214703 -5.55143914 0.03851407 0 0 Z " fill="#000000" transform="translate(425.16015625,978.62890625)"/>
<path d="M0 0 C0.70995117 0.00016113 1.41990234 0.00032227 2.15136719 0.00048828 C4.29184729 -0.00384858 6.43020257 -0.04005003 8.5703125 -0.078125 C16.06703309 -0.14124719 21.91380083 -0.00269956 28.1953125 4.37109375 C31.93208831 9.25280981 32.78959667 14.02824671 32.51953125 20.109375 C32.0827566 23.15627284 31.14760849 25.00044862 29.1953125 27.37109375 C28.6384375 28.09296875 28.0815625 28.81484375 27.5078125 29.55859375 C20.58657118 34.98335046 10.54033581 33.63592443 2.2578125 33.55859375 C0.90559959 33.5571347 -0.44661444 33.55647722 -1.79882812 33.55664062 C-11.6642339 33.51154735 -11.6642339 33.51154735 -12.8046875 32.37109375 C-13.02278506 28.11360949 -12.99047911 23.85063651 -12.98999023 19.58813477 C-12.99217493 17.44592375 -13.01032262 15.30422904 -13.02929688 13.16210938 C-13.03223109 11.80599135 -13.0342157 10.44987087 -13.03515625 9.09375 C-13.03926514 7.85375244 -13.04337402 6.61375488 -13.04760742 5.33618164 C-12.46100124 -1.82395113 -5.58510916 0.04003516 0 0 Z " fill="#000000" transform="translate(424.8046875,917.62890625)"/>
</svg>
