<?xml version="1.0" encoding="UTF-8"?>
<!-- Generator: visioncortex VTracer 0.6.1 -->
<svg version="1.1" xmlns="http://www.w3.org/2000/svg" width="1280" height="1280">
<path d="M0 0 C422.4 0 844.8 0 1280 0 C1280 422.4 1280 844.8 1280 1280 C857.6 1280 435.2 1280 0 1280 C0 857.6 0 435.2 0 0 Z " fill="#000002" transform="translate(0,0)"/>
<path d="M0 0 C7.21072554 4.74191763 12.13239328 14.04594063 14.16796875 22.25390625 C14.46446121 24.79342865 14.54835013 27.2549108 14.5625 29.8125 C14.58828125 31.06417969 14.6140625 32.31585938 14.640625 33.60546875 C14.81402896 45.15334654 14.28297558 55.546286 10.59765625 66.57421875 C9.83358219 68.96447307 9.18873034 71.28125499 8.609375 73.71484375 C7.6062053 77.82406601 6.25387462 81.7372258 4.75 85.6875 C4.48501709 86.38584961 4.22003418 87.08419922 3.94702148 87.80371094 C0.50143547 96.73433927 -3.95208663 104.85557182 -8.88671875 113.05078125 C-10.31613126 115.59635969 -11.4017366 118.08899714 -12.4375 120.8125 C-13.97120034 123.73383398 -15.39323365 125.77021902 -17.7890625 128.05859375 C-20.59787078 130.97925722 -22.46296254 133.88004308 -24.5 137.375 C-26.85125316 141.40239402 -29.06977434 144.60263648 -32.4375 147.8125 C-33.7654704 149.44587633 -35.07673947 151.09291122 -36.375 152.75 C-40.10685168 157.35592326 -44.05650344 161.62372651 -48.25 165.8125 C-48.80099365 166.36413818 -49.3519873 166.91577637 -49.91967773 167.48413086 C-57.34779884 174.8125 -57.34779884 174.8125 -60.4375 174.8125 C-60.82615234 175.70001953 -60.82615234 175.70001953 -61.22265625 176.60546875 C-65.3354712 184.07730298 -74.42314429 188.4906236 -81.4375 192.8125 C-83.13147247 193.88568434 -84.8195255 194.96830037 -86.5 196.0625 C-87.21285156 196.52140625 -87.92570313 196.9803125 -88.66015625 197.453125 C-90.70795373 198.86727181 -90.70795373 198.86727181 -92.4375 201.8125 C-94.98362236 202.17407951 -97.20319448 202.32221137 -99.75 202.3125 C-101.72419922 202.35890625 -101.72419922 202.35890625 -103.73828125 202.40625 C-108.29087088 201.67552812 -109.61720318 200.38487597 -112.4375 196.8125 C-113.7734375 194.56640625 -113.7734375 194.56640625 -114.8125 192.375 C-116.92754515 188.3450717 -119.26228809 185.99410635 -122.8046875 183.203125 C-126.16078478 180.34482205 -128.05603102 176.5460942 -130.0625 172.6875 C-132.4063576 168.49273898 -135.54723423 164.94229522 -138.65380859 161.30419922 C-141.14005029 158.39027622 -143.47766923 155.44017054 -145.6875 152.3125 C-147.64706291 149.59583323 -148.70256965 148.64938021 -151.6875 146.8125 C-154.96547374 144.4285191 -154.99287704 143.00957382 -155.69140625 139.1640625 C-157.59266628 133.17160941 -162.40797235 127.75168302 -166.89453125 123.46484375 C-169.96087428 120.266615 -172.05868563 116.8545048 -174.3125 113.0625 C-177.59924666 107.65977992 -180.99108376 102.54587934 -184.984375 97.62890625 C-186.97629213 95.13900984 -188.66962398 92.46431402 -190.4375 89.8125 C-191.64384494 88.38393362 -192.8505069 86.95559942 -194.06640625 85.53515625 C-196.77054917 82.13764335 -199.08137039 78.4559994 -201.4375 74.8125 C-205.10039304 76.03346435 -205.9675193 77.41731085 -208.3125 80.4375 C-209.364375 81.78328125 -209.364375 81.78328125 -210.4375 83.15625 C-212.11635629 85.38598101 -213.73007035 87.63920932 -215.3125 89.9375 C-216.01375 90.88625 -216.715 91.835 -217.4375 92.8125 C-218.0975 92.8125 -218.7575 92.8125 -219.4375 92.8125 C-219.70304688 93.36542725 -219.96859375 93.91835449 -220.2421875 94.48803711 C-221.57115621 97.07241438 -223.04518711 99.52526096 -224.5625 102.00390625 C-230.63807021 111.98898069 -236.69481767 121.95778412 -242.125 132.3125 C-242.50978516 133.0454126 -242.89457031 133.7783252 -243.29101562 134.53344727 C-246.8690368 141.46546466 -250.3484968 148.34893752 -252.0625 156 C-252.77630756 159.07635542 -253.49178479 161.96329108 -254.5625 164.9375 C-255.86378532 169.21315177 -256.19168478 173.35989257 -256.4375 177.8125 C-256.47681641 178.46814941 -256.51613281 179.12379883 -256.55664062 179.79931641 C-257.29031571 192.23201887 -257.29031571 192.23201887 -251.4375 202.8125 C-250.32339514 204.2423114 -249.21921404 205.67990972 -248.125 207.125 C-247.61324219 207.76050781 -247.10148438 208.39601563 -246.57421875 209.05078125 C-245.4375 210.8125 -245.4375 210.8125 -245.4375 213.8125 C-254.13694231 214.36778355 -260.17807305 212.23631675 -266.8125 206.5 C-271.70785248 202.04756036 -274.39526399 197.48011134 -275.5 190.9375 C-276.05151167 187.83235024 -276.68586515 184.84087495 -277.5625 181.8125 C-279.58758416 173.80600613 -278.32730894 165.47633376 -277.0625 157.4375 C-276.93617188 156.56222656 -276.80984375 155.68695312 -276.6796875 154.78515625 C-276.05335144 150.68265509 -275.33498387 147.51587784 -273.4375 143.8125 C-273.14875 142.595625 -272.86 141.37875 -272.5625 140.125 C-271.86535889 137.20480518 -270.98172307 134.58560678 -269.734375 131.85546875 C-269.19997803 130.67827271 -269.19997803 130.67827271 -268.65478516 129.47729492 C-268.25308105 128.5979126 -267.85137695 127.71853027 -267.4375 126.8125 C-266.99067871 125.81645752 -266.54385742 124.82041504 -266.08349609 123.79418945 C-264.58761785 120.46181983 -263.07601378 117.13689298 -261.5625 113.8125 C-261.05847656 112.6884375 -260.55445313 111.564375 -260.03515625 110.40625 C-257.34343355 104.51337371 -254.49970977 99.06295728 -250.78564453 93.75195312 C-248.31279979 90.19449593 -246.2733523 86.38035057 -244.1484375 82.609375 C-242.42545012 79.79280202 -240.63860432 77.2741432 -238.4375 74.8125 C-237.7775 74.8125 -237.1175 74.8125 -236.4375 74.8125 C-236.16679688 74.08160156 -235.89609375 73.35070312 -235.6171875 72.59765625 C-232.11403186 64.32696097 -225.95428327 58.00946726 -219.52587891 51.92358398 C-216.83836511 49.35523599 -215.02168738 47.14836593 -213.4375 43.8125 C-211.6328125 42.03125 -211.6328125 42.03125 -209.5625 40.3125 C-207.47037228 38.56243119 -205.4624272 36.83799608 -203.5546875 34.88671875 C-201.00605511 32.38981137 -198.28289689 30.2768314 -195.4375 28.125 C-194.40625 27.33738281 -193.375 26.54976563 -192.3125 25.73828125 C-189.4375 23.8125 -189.4375 23.8125 -187.1875 23.29296875 C-186.61 23.13441406 -186.0325 22.97585938 -185.4375 22.8125 C-184.76972522 21.4797213 -184.10318393 20.14632425 -183.4375 18.8125 C-179.98559277 16.43208426 -176.19287189 14.66882163 -172.4375 12.8125 C-171.44878906 12.31878906 -170.46007812 11.82507813 -169.44140625 11.31640625 C-160.15506895 6.86854049 -160.15506895 6.86854049 -156.4375 7.8125 C-154.39317053 10.26151177 -152.96040238 13.0197277 -151.4375 15.8125 C-150.58547922 17.22581385 -149.72609519 18.63471512 -148.859375 20.0390625 C-148.42544434 20.75352539 -147.99151367 21.46798828 -147.54443359 22.20410156 C-142.6582053 30.24642189 -137.66967215 38.20948917 -132.54345703 46.10058594 C-131.38282466 47.89713211 -130.23504337 49.70139361 -129.08984375 51.5078125 C-125.84713835 56.61781557 -122.59836622 61.73053514 -119.125 66.6875 C-118.69574219 67.30367187 -118.26648438 67.91984375 -117.82421875 68.5546875 C-116.25573444 70.26039437 -116.25573444 70.26039437 -112.4375 69.8125 C-110.33333424 67.11872988 -110.33333424 67.11872988 -108.4375 63.8125 C-102.36414524 55.22561822 -95.7229059 47.38531182 -88.4375 39.8125 C-87.85129883 39.19906738 -87.26509766 38.58563477 -86.66113281 37.95361328 C-79.07280793 30.05059261 -71.54507029 22.96589577 -62.4375 16.8125 C-60.58114458 15.41957887 -58.72699688 14.02371093 -56.875 12.625 C-51.92488057 9.05339484 -47.05332304 6.1997932 -41.4375 3.8125 C-40.55263916 3.42118896 -40.55263916 3.42118896 -39.64990234 3.02197266 C-27.71932052 -2.15342116 -12.31297997 -6.34856438 0 0 Z " fill="#7B8CC2" transform="translate(768.4375,462.1875)"/>
<path d="M0 0 C6.94271345 6.31155769 8.51275108 13.53769193 9.0234375 22.63671875 C9.54754118 39.22542189 5.9968051 54.28872374 -1.51171875 69.0703125 C-3.13662149 72.27630037 -4.57324955 75.51493843 -6 78.8125 C-9.99092562 87.47729039 -15.13369725 95.46755385 -20.25 103.5 C-20.64574219 104.12455078 -21.04148437 104.74910156 -21.44921875 105.39257812 C-25.02089237 111.00073232 -28.51036719 115.82509663 -33.25 120.5 C-34.87781995 122.41767024 -36.48252733 124.35522043 -38.0625 126.3125 C-38.85269531 127.28832031 -39.64289062 128.26414062 -40.45703125 129.26953125 C-41.04871094 130.00558594 -41.64039063 130.74164062 -42.25 131.5 C-45 131.3515625 -45 131.3515625 -48.25 130.5 C-50.375 128.0234375 -50.375 128.0234375 -52.25 124.875 C-54.33611368 121.42422029 -56.395732 118.25612892 -59.08984375 115.265625 C-63.66983053 110.06115997 -66.95575471 104.00214997 -70.48242188 98.0625 C-73.38226367 93.26038951 -76.18656065 89.40589081 -80.25 85.5 C-82.07305907 83.05251966 -83.72476061 80.50369795 -85.375 77.9375 C-86.23075201 76.62303407 -87.08749578 75.30921319 -87.9453125 73.99609375 C-88.34008789 73.38233887 -88.73486328 72.76858398 -89.14160156 72.13623047 C-90.30049793 70.35563046 -90.30049793 70.35563046 -92.1171875 68.34765625 C-93.25 66.5 -93.25 66.5 -93.125 64.0078125 C-92.1755008 61.28647996 -91.07553601 59.59775912 -89.25 57.375 C-88.29867187 56.20517578 -88.29867187 56.20517578 -87.328125 55.01171875 C-86.64234375 54.18285156 -85.9565625 53.35398437 -85.25 52.5 C-84.56421875 51.64019531 -83.8784375 50.78039062 -83.171875 49.89453125 C-77.4933813 42.81684036 -71.48732113 36.08360147 -65.25 29.5 C-64.77208008 28.99339844 -64.29416016 28.48679687 -63.80175781 27.96484375 C-58.66249321 22.55217719 -53.91007938 17.94896968 -47.25 14.5 C-45.46594799 13.20552506 -43.69642374 11.89091793 -41.9375 10.5625 C-34.28991977 4.93404834 -26.35979274 1.12887807 -17.25 -1.5 C-16.0125 -1.87125 -16.0125 -1.87125 -14.75 -2.25 C-9.45823548 -2.77917645 -4.84009924 -2.23389196 0 0 Z " fill="#000002" transform="translate(750.25,472.5)"/>
<path d="M0 0 C1.32 0 2.64 0 4 0 C4 422.4 4 844.8 4 1280 C3.01 1280 2.02 1280 1 1280 C0.67 857.6 0.34 435.2 0 0 Z " fill="#7C8DC3" transform="translate(1276,0)"/>
<path d="M0 0 C1.50433594 0.01353516 1.50433594 0.01353516 3.0390625 0.02734375 C3.80992187 0.03894531 4.58078125 0.05054688 5.375 0.0625 C7.99454449 8.40849058 10.01734286 16.29989998 10.375 25.0625 C11.365 25.3925 12.355 25.7225 13.375 26.0625 C13.54104736 25.38147217 13.70709473 24.70044434 13.87817383 23.9987793 C14.63703745 20.91304975 15.41205792 17.83160318 16.1875 14.75 C16.44853516 13.67814453 16.70957031 12.60628906 16.97851562 11.50195312 C17.23955078 10.47392578 17.50058594 9.44589844 17.76953125 8.38671875 C18.00518799 7.43885498 18.24084473 6.49099121 18.48364258 5.5144043 C19.41929612 2.94065229 20.21920295 1.7210156 22.375 0.0625 C24.63671875 -0.23046875 24.63671875 -0.23046875 27.0625 -0.125 C28.27486328 -0.08439453 28.27486328 -0.08439453 29.51171875 -0.04296875 C30.12660156 -0.00816406 30.74148438 0.02664063 31.375 0.0625 C32.19634989 2.55988858 33.00715748 5.05994805 33.8125 7.5625 C34.04259766 8.25859375 34.27269531 8.9546875 34.50976562 9.671875 C36.04549584 14.47937828 36.8827359 19.03801131 37.375 24.0625 C38.035 24.0625 38.695 24.0625 39.375 24.0625 C39.375 24.7225 39.375 25.3825 39.375 26.0625 C40.035 26.0625 40.695 26.0625 41.375 26.0625 C41.41367187 25.24072266 41.41367187 25.24072266 41.453125 24.40234375 C41.85761727 18.74864504 42.9114068 13.45847215 44.375 8 C44.55321289 7.33282959 44.73142578 6.66565918 44.91503906 5.97827148 C46.23683255 1.20066745 46.23683255 1.20066745 47.375 0.0625 C49.185285 -0.03629565 50.99952727 -0.06721514 52.8125 -0.0625 C53.80121094 -0.06507813 54.78992188 -0.06765625 55.80859375 -0.0703125 C58.375 0.0625 58.375 0.0625 60.375 1.0625 C58.67934398 11.01171063 55.66450741 20.54353098 52.75 30.1875 C52.22874931 31.92435397 51.70791243 33.66133218 51.1875 35.3984375 C49.921436 39.62124013 48.64977348 43.84231881 47.375 48.0625 C45.43818839 48.14357583 43.5004066 48.20172475 41.5625 48.25 C40.48355469 48.28480469 39.40460937 48.31960938 38.29296875 48.35546875 C35.375 48.0625 35.375 48.0625 33.58862305 46.8425293 C32.15006656 44.73258857 31.47337119 42.85015061 30.76953125 40.39453125 C30.50849609 39.50185547 30.24746094 38.60917969 29.97851562 37.68945312 C29.71748047 36.76068359 29.45644531 35.83191406 29.1875 34.875 C28.91486328 33.93462891 28.64222656 32.99425781 28.36132812 32.02539062 C27.69046425 29.70679093 27.02874456 27.38597352 26.375 25.0625 C24.41773504 27.99839745 23.74031868 30.33980889 22.94140625 33.73046875 C22.3126371 36.31926312 21.61225619 38.87747977 20.875 41.4375 C20.6378125 42.27023437 20.400625 43.10296875 20.15625 43.9609375 C19.375 46.0625 19.375 46.0625 17.375 48.0625 C15.1328125 48.36328125 15.1328125 48.36328125 12.5 48.375 C11.63632812 48.39175781 10.77265625 48.40851562 9.8828125 48.42578125 C6.75773866 47.97308364 5.65703495 47.24737928 3.375 45.0625 C2.14233398 42.01904297 2.14233398 42.01904297 1.12109375 38.3046875 C0.93410416 37.64220001 0.74711456 36.97971252 0.55445862 36.29714966 C-0.03995115 34.18081656 -0.61427599 32.05965872 -1.1875 29.9375 C-1.76716468 27.84307173 -2.35092381 25.74982276 -2.93563843 23.65679932 C-3.31220989 22.30521899 -3.68580391 20.95280531 -4.05630493 19.59954834 C-5.06192662 15.95028319 -6.18069251 12.38035017 -7.46484375 8.8203125 C-8.86048406 4.29975365 -8.86048406 4.29975365 -7.625 1.0625 C-4.98041621 -0.25979189 -2.94738699 -0.03427194 0 0 Z " fill="#7C8DC3" transform="translate(611.625,706.9375)"/>
<path d="M0 0 C0.85658203 0.00064453 1.71316406 0.00128906 2.59570312 0.00195312 C3.9347168 0.02612305 3.9347168 0.02612305 5.30078125 0.05078125 C6.17412109 0.04755859 7.04746094 0.04433594 7.94726562 0.04101562 C15.63621241 0.10418098 22.81505433 0.92634638 29.07421875 5.7421875 C34.89553368 11.87377557 35.8961037 20.64834344 35.84765625 28.71484375 C35.48163447 32.85088989 34.16670826 36.53519327 32.61328125 40.36328125 C31.95328125 40.36328125 31.29328125 40.36328125 30.61328125 40.36328125 C30.28328125 41.35328125 29.95328125 42.34328125 29.61328125 43.36328125 C21.80357701 48.56975075 14.54298376 48.54480488 5.36328125 48.55078125 C4.3578125 48.56302734 3.35234375 48.57527344 2.31640625 48.58789062 C1.35734375 48.58982422 0.39828125 48.59175781 -0.58984375 48.59375 C-1.89937012 48.59991333 -1.89937012 48.59991333 -3.23535156 48.60620117 C-5.38671875 48.36328125 -5.38671875 48.36328125 -7.38671875 46.36328125 C-7.64741516 44.51051331 -7.64741516 44.51051331 -7.66137695 42.23657227 C-7.67090897 41.38551407 -7.68044098 40.53445587 -7.69026184 39.65760803 C-7.68935043 38.73676926 -7.68843903 37.81593048 -7.6875 36.8671875 C-7.69178513 35.92270248 -7.69607025 34.97821747 -7.70048523 34.00511169 C-7.70623461 32.0052877 -7.70672433 30.0054428 -7.70239258 28.00561523 C-7.69923498 24.94153221 -7.72267601 21.8784165 -7.74804688 18.81445312 C-7.75032 16.87369914 -7.75102331 14.93294255 -7.75 12.9921875 C-7.76381462 11.61396568 -7.76381462 11.61396568 -7.77790833 10.207901 C-7.77167953 9.35369064 -7.76545074 8.49948029 -7.7590332 7.61938477 C-7.75966263 6.86818863 -7.76029205 6.11699249 -7.76094055 5.34303284 C-6.92899322 0.94176856 -4.10225571 -0.01585537 0 0 Z " fill="#7B8CC2" transform="translate(566.38671875,706.63671875)"/>
<path d="M0 0 C1.57394531 -0.00386719 1.57394531 -0.00386719 3.1796875 -0.0078125 C4.83097656 0.00378906 4.83097656 0.00378906 6.515625 0.015625 C7.60101562 0.00789062 8.68640625 0.00015625 9.8046875 -0.0078125 C22.49464856 0.0232143 22.49464856 0.0232143 26.62890625 4.10546875 C27.10714844 4.79769531 27.58539062 5.48992188 28.078125 6.203125 C28.81482422 7.23759766 28.81482422 7.23759766 29.56640625 8.29296875 C32.38831578 12.93487204 32.73293903 18.00585496 31.765625 23.265625 C29.79103832 26.62242235 27.43854671 29.44269237 24.765625 32.265625 C25.343125 33.25304687 25.920625 34.24046875 26.515625 35.2578125 C27.265851 36.55195235 28.01583868 37.84623037 28.765625 39.140625 C29.1471875 39.79160156 29.52875 40.44257812 29.921875 41.11328125 C32.765625 46.0390625 32.765625 46.0390625 32.765625 48.265625 C30.68408565 48.40098522 28.60001294 48.49777965 26.515625 48.578125 C25.35546875 48.63613281 24.1953125 48.69414063 23 48.75390625 C19.765625 48.265625 19.765625 48.265625 17.515625 46.0078125 C16.938125 45.10289062 16.360625 44.19796875 15.765625 43.265625 C15.27578125 42.55019531 14.7859375 41.83476563 14.28125 41.09765625 C13.86359375 40.43121094 13.4459375 39.76476562 13.015625 39.078125 C12.58765625 38.40394531 12.1596875 37.72976563 11.71875 37.03515625 C10.765625 35.265625 10.765625 35.265625 10.765625 33.265625 C9.445625 33.265625 8.125625 33.265625 6.765625 33.265625 C6.77722656 34.26464844 6.78882813 35.26367188 6.80078125 36.29296875 C6.80980469 37.58332031 6.81882812 38.87367188 6.828125 40.203125 C6.83972656 41.49089844 6.85132813 42.77867187 6.86328125 44.10546875 C6.765625 47.265625 6.765625 47.265625 5.765625 48.265625 C3.95635219 48.39050258 2.14166393 48.44133346 0.328125 48.453125 C-0.66058594 48.46730469 -1.64929688 48.48148438 -2.66796875 48.49609375 C-5.234375 48.265625 -5.234375 48.265625 -7.234375 46.265625 C-7.48834229 44.36816406 -7.48834229 44.36816406 -7.49316406 42.03125 C-7.49946838 41.15694336 -7.50577271 40.28263672 -7.51226807 39.38183594 C-7.5082196 38.43598633 -7.50417114 37.49013672 -7.5 36.515625 C-7.50191345 35.54657227 -7.5038269 34.57751953 -7.50579834 33.57910156 C-7.50716079 31.52799215 -7.50346018 29.47687414 -7.49511719 27.42578125 C-7.48441859 24.27844961 -7.49501054 21.1316888 -7.5078125 17.984375 C-7.50649092 15.9947904 -7.50392855 14.00520616 -7.5 12.015625 C-7.50404846 11.06977539 -7.50809692 10.12392578 -7.51226807 9.14941406 C-7.50596375 8.27510742 -7.49965942 7.40080078 -7.49316406 6.5 C-7.49157288 5.72881836 -7.48998169 4.95763672 -7.48834229 4.16308594 C-6.88735389 -0.32706724 -3.74765276 0.00883583 0 0 Z " fill="#7C8DC3" transform="translate(522.234375,706.734375)"/>
<path d="M0 0 C1.06025391 -0.02449219 2.12050781 -0.04898438 3.21289062 -0.07421875 C9.93308556 -0.09909301 15.81796465 0.39527369 21.4375 4.375 C25.69493789 10.29767853 25.48593387 17.37210203 24.4375 24.375 C23.054356 26.82503193 21.52890819 28.69551165 19.66015625 30.78515625 C18.14005535 32.37617266 18.14005535 32.37617266 18.75 34.875 C19.306875 35.7 19.86375 36.525 20.4375 37.375 C21.31827909 38.74630529 22.19285804 40.12160497 23.0625 41.5 C23.50851562 42.16257812 23.95453125 42.82515625 24.4140625 43.5078125 C25.4375 45.375 25.4375 45.375 25.4375 48.375 C23.52208862 48.48341951 21.60490227 48.56078079 19.6875 48.625 C18.62015625 48.67140625 17.5528125 48.7178125 16.453125 48.765625 C12.68156646 48.27708115 11.74915231 47.33711724 9.4375 44.375 C7.78958362 41.77302677 6.30477263 39.11114678 4.8046875 36.421875 C4.35351562 35.74640625 3.90234375 35.0709375 3.4375 34.375 C2.7775 34.375 2.1175 34.375 1.4375 34.375 C0.08658472 37.07683055 0.09891942 39.49308206 -0.125 42.5 C-0.269375 44.43875 -0.41375 46.3775 -0.5625 48.375 C-4.8525 48.375 -9.1425 48.375 -13.5625 48.375 C-13.61183483 41.86052565 -13.64818851 35.34615937 -13.67236328 28.83154297 C-13.68243825 26.61407579 -13.69609859 24.39662195 -13.71337891 22.17919922 C-13.73756163 18.99703688 -13.74896797 15.81504976 -13.7578125 12.6328125 C-13.76813507 11.63694122 -13.77845764 10.64106995 -13.78909302 9.61502075 C-13.78924408 8.69421722 -13.78939514 7.7734137 -13.78955078 6.82470703 C-13.793992 6.0119632 -13.79843323 5.19921936 -13.80300903 4.36184692 C-13.04322057 -1.91477126 -4.67019551 0.00553669 0 0 Z " fill="#7C8DC3" transform="translate(736.5625,706.625)"/>
<path d="M0 0 C2.69140625 0.01171875 2.69140625 0.01171875 5.5 1.0625 C9.26401609 4.87647509 11.84446231 9.70569653 14.47607422 14.33398438 C15.54928362 16.21973442 15.54928362 16.21973442 17.28515625 18.421875 C18.5 20.0625 18.5 20.0625 18.5 22.0625 C19.49 22.3925 20.48 22.7225 21.5 23.0625 C21.51981934 22.46711426 21.53963867 21.87172852 21.56005859 21.25830078 C21.65516126 18.56757847 21.76489842 15.87764852 21.875 13.1875 C21.9059375 12.25035156 21.936875 11.31320312 21.96875 10.34765625 C22.00742187 9.45175781 22.04609375 8.55585937 22.0859375 7.6328125 C22.1173584 6.80539551 22.1487793 5.97797852 22.18115234 5.12548828 C22.5 3.0625 22.5 3.0625 24.5 1.0625 C26.84765625 0.83203125 26.84765625 0.83203125 29.5625 0.875 C30.91021484 0.88466797 30.91021484 0.88466797 32.28515625 0.89453125 C34.5 1.0625 34.5 1.0625 35.5 2.0625 C35.59304018 3.53604348 35.61746265 5.01400591 35.61352539 6.49047852 C35.61344986 7.43137833 35.61337433 8.37227814 35.61329651 9.34169006 C35.60813522 10.36459641 35.60297394 11.38750275 35.59765625 12.44140625 C35.5962413 13.48320541 35.59482635 14.52500458 35.59336853 15.59837341 C35.5877508 18.94061094 35.5751953 22.28278257 35.5625 25.625 C35.55748728 27.88476466 35.55292398 30.14453037 35.54882812 32.40429688 C35.53777561 37.95705391 35.52102024 43.50977225 35.5 49.0625 C33.89282074 49.11905773 32.28506928 49.15952137 30.67724609 49.19311523 C29.7820224 49.21736069 28.88679871 49.24160614 27.96444702 49.2665863 C25.5 49.0625 25.5 49.0625 22.6640625 46.97265625 C20.34201194 43.85004314 18.03515538 40.73650867 15.875 37.5 C13.48213677 33.96325114 11.06394623 30.48109497 8.5 27.0625 C8.17 34.3225 7.84 41.5825 7.5 49.0625 C-3.5 49.0625 -3.5 49.0625 -6.5 47.0625 C-6.8742218 45.16503906 -6.8742218 45.16503906 -6.87231445 42.828125 C-6.87854324 41.95381836 -6.88477203 41.07951172 -6.89118958 40.17871094 C-6.88197983 39.23286133 -6.87277008 38.28701172 -6.86328125 37.3125 C-6.86377975 36.34344727 -6.86427826 35.37439453 -6.86479187 34.37597656 C-6.86244884 32.32484896 -6.85270694 30.27371862 -6.83618164 28.22265625 C-6.81259562 25.0752605 -6.81561814 21.92871159 -6.82226562 18.78125 C-6.81668893 16.79166159 -6.80957911 14.80207677 -6.80078125 12.8125 C-6.80169266 11.86665039 -6.80260406 10.92080078 -6.80354309 9.94628906 C-6.79401108 9.07198242 -6.78447906 8.19767578 -6.7746582 7.296875 C-6.77005081 6.52569336 -6.76544342 5.75451172 -6.76069641 4.95996094 C-6.22392749 1.05312518 -3.45151478 0.47512941 0 0 Z " fill="#7C8DC3" transform="translate(432.5,705.9375)"/>
<path d="M0 0 C0.68126953 -0.02900391 1.36253906 -0.05800781 2.06445312 -0.08789062 C5.06926209 -0.1261497 7.02430741 -0.13560885 9.3828125 1.828125 C11.00136201 5.23672596 12.0223319 8.74468536 13 12.375 C14.6423332 18.2218299 16.4446476 23.9213173 18.58203125 29.609375 C23.5625 43.34038845 23.5625 43.34038845 23.5625 48.3125 C21.62568839 48.39357583 19.6879066 48.45172475 17.75 48.5 C16.67105469 48.53480469 15.59210937 48.56960938 14.48046875 48.60546875 C11.5625 48.3125 11.5625 48.3125 9.73828125 47.17578125 C8.5625 45.3125 8.5625 45.3125 7.5625 39.3125 C-0.3575 39.8075 -0.3575 39.8075 -8.4375 40.3125 C-9.0975 42.9525 -9.7575 45.5925 -10.4375 48.3125 C-12.39575873 48.33944851 -14.35412226 48.35887218 -16.3125 48.375 C-17.40304687 48.38660156 -18.49359375 48.39820313 -19.6171875 48.41015625 C-22.4375 48.3125 -22.4375 48.3125 -24.4375 47.3125 C-22.05215982 38.97781214 -19.23422852 30.80680832 -16.375 22.625 C-15.4860289 20.08019637 -14.59974094 17.53451008 -13.71484375 14.98828125 C-13.32546631 13.87364502 -12.93608887 12.75900879 -12.53491211 11.6105957 C-11.74993272 9.25146631 -11.05462111 6.86175012 -10.42016602 4.45776367 C-10.09588623 3.41982666 -9.77160645 2.38188965 -9.4375 1.3125 C-6.41881565 -0.19684217 -3.30941602 0.04669919 0 0 Z " fill="#7C8DC3" transform="translate(694.4375,706.6875)"/>
<path d="M0 0 C1.0186338 -0.00074776 1.0186338 -0.00074776 2.05784607 -0.00151062 C3.49098645 0.00082672 4.92413118 0.01053539 6.35717773 0.02709961 C8.55424544 0.05073447 10.75010275 0.04765358 12.94726562 0.04101562 C23.71694742 0.08413492 23.71694742 0.08413492 25.99609375 2.36328125 C26.19140625 4.52734375 26.19140625 4.52734375 26.12109375 6.98828125 C26.10304688 7.80554688 26.085 8.6228125 26.06640625 9.46484375 C26.04320312 10.09132813 26.02 10.7178125 25.99609375 11.36328125 C25.43623779 11.3475708 24.87638184 11.33186035 24.29956055 11.31567383 C21.76100785 11.25328277 19.22261646 11.21427907 16.68359375 11.17578125 C15.80251953 11.15064453 14.92144531 11.12550781 14.01367188 11.09960938 C13.16611328 11.08994141 12.31855469 11.08027344 11.4453125 11.0703125 C10.66502686 11.05460205 9.88474121 11.0388916 9.08081055 11.02270508 C6.41266566 11.45859477 5.59425127 12.20860889 3.99609375 14.36328125 C3.28161732 16.46661016 3.28161732 16.46661016 2.99609375 18.36328125 C4.26066406 18.34007812 5.52523438 18.316875 6.828125 18.29296875 C8.48827535 18.27420999 10.14843208 18.2560099 11.80859375 18.23828125 C13.05866211 18.21314453 13.05866211 18.21314453 14.33398438 18.1875 C15.13642578 18.18105469 15.93886719 18.17460938 16.765625 18.16796875 C17.50401611 18.15749512 18.24240723 18.14702148 19.00317383 18.13623047 C20.99609375 18.36328125 20.99609375 18.36328125 23.99609375 20.36328125 C23.66609375 23.33328125 23.33609375 26.30328125 22.99609375 29.36328125 C16.72609375 29.69328125 10.45609375 30.02328125 3.99609375 30.36328125 C3.99609375 32.34328125 3.99609375 34.32328125 3.99609375 36.36328125 C10.26609375 36.69328125 16.53609375 37.02328125 22.99609375 37.36328125 C23.32609375 38.35328125 23.65609375 39.34328125 23.99609375 40.36328125 C26.01117733 41.09651921 26.01117733 41.09651921 27.99609375 41.36328125 C27.00609375 41.36328125 26.01609375 41.36328125 24.99609375 41.36328125 C24.99609375 43.01328125 24.99609375 44.66328125 24.99609375 46.36328125 C25.98609375 46.69328125 26.97609375 47.02328125 27.99609375 47.36328125 C24.22395154 48.56573367 20.61344907 48.49269544 16.67578125 48.49609375 C15.97591095 48.49705048 15.27604065 48.4980072 14.55496216 48.49899292 C13.08074859 48.49967153 11.60653199 48.49783952 10.13232422 48.49365234 C7.87200256 48.48828341 5.61187814 48.49361631 3.3515625 48.5 C1.91796831 48.49933948 0.48437424 48.49805885 -0.94921875 48.49609375 C-2.25391113 48.49496582 -3.55860352 48.49383789 -4.90283203 48.49267578 C-8.00390625 48.36328125 -8.00390625 48.36328125 -10.00390625 47.36328125 C-10.07799072 41.15196351 -10.13247739 34.9409022 -10.16870117 28.72924805 C-10.18379985 26.61559571 -10.20428051 24.50197477 -10.23022461 22.38842773 C-10.26656022 19.3526231 -10.28362169 16.31723219 -10.296875 13.28125 C-10.31235886 12.33428757 -10.32784271 11.38732513 -10.34379578 10.41166687 C-10.34402237 9.53098038 -10.34424896 8.65029388 -10.34448242 7.74291992 C-10.35114426 6.96792648 -10.35780609 6.19293304 -10.3646698 5.39445496 C-9.34943479 -0.32152901 -4.93624517 -0.01158376 0 0 Z " fill="#7C8DC3" transform="translate(484.00390625,706.63671875)"/>
<path d="M0 0 C1.02975197 0.01077827 1.02975197 0.01077827 2.08030701 0.02177429 C2.78537888 0.02223251 3.49045074 0.02269073 4.21688843 0.02316284 C5.70726708 0.02618442 7.1976426 0.03406794 8.68797302 0.0464325 C10.97706709 0.06469849 13.26575703 0.06694213 15.55491638 0.06669617 C17.00088344 0.07161098 18.44684775 0.07743915 19.89280701 0.08427429 C20.92559532 0.08594353 20.92559532 0.08594353 21.97924805 0.08764648 C26.80409576 0.13618805 26.80409576 0.13618805 27.92015076 1.25224304 C28.06272265 4.58842536 27.96243233 7.9119991 27.92015076 11.25224304 C21.65015076 11.25224304 15.38015076 11.25224304 8.92015076 11.25224304 C7.93015076 13.56224304 6.94015076 15.87224304 5.92015076 18.25224304 C6.49048035 18.27729919 7.06080994 18.30235535 7.64842224 18.32817078 C10.21841232 18.44380853 12.78800603 18.56667928 15.35765076 18.68974304 C16.25548279 18.72905945 17.15331482 18.76837585 18.07835388 18.80888367 C19.35935974 18.87172546 19.35935974 18.87172546 20.66624451 18.93583679 C21.45700378 18.97249451 22.24776306 19.00915222 23.06248474 19.04692078 C24.92015076 19.25224304 24.92015076 19.25224304 25.92015076 20.25224304 C25.99220587 21.9383327 26.00401143 23.62724963 25.98265076 25.31474304 C25.97362732 26.2338446 25.96460388 27.15294617 25.95530701 28.09989929 C25.94370544 28.81017273 25.93210388 29.52044617 25.92015076 30.25224304 C25.13511169 30.22903992 24.35007263 30.20583679 23.54124451 30.18193054 C17.57222472 30.07939523 12.54611557 30.20643765 6.92015076 32.25224304 C6.59015076 33.57224304 6.26015076 34.89224304 5.92015076 36.25224304 C6.48524353 36.27206238 7.0503363 36.29188171 7.6325531 36.31230164 C10.18723072 36.40742541 12.74107616 36.51715362 15.29515076 36.62724304 C16.18460388 36.65818054 17.07405701 36.68911804 17.99046326 36.72099304 C18.84124451 36.75966492 19.69202576 36.79833679 20.56858826 36.83818054 C21.35411072 36.86960144 22.13963318 36.90102234 22.94895935 36.93339539 C24.92015076 37.25224304 24.92015076 37.25224304 26.92015076 39.25224304 C27.33421326 41.41630554 27.33421326 41.41630554 27.54515076 43.87724304 C27.61991638 44.69450867 27.69468201 45.51177429 27.77171326 46.35380554 C27.82069763 46.98028992 27.86968201 47.60677429 27.92015076 48.25224304 C23.25706877 48.2769295 18.59402467 48.29509653 13.93089294 48.30717468 C12.34397214 48.31220892 10.75705599 48.31903673 9.17015076 48.3276825 C6.89149326 48.33978786 4.612897 48.34548037 2.33421326 48.34989929 C1.26694504 48.35764122 1.26694504 48.35764122 0.17811584 48.36553955 C-4.85210583 48.36611475 -4.85210583 48.36611475 -7.07984924 47.25224304 C-7.13044554 40.88020711 -7.16553881 34.50822274 -7.18971252 28.1360321 C-7.19978713 25.9670671 -7.21344722 23.79811573 -7.23072815 21.62919617 C-7.25491247 18.51653179 -7.26631757 15.40404653 -7.27516174 12.29130554 C-7.28548431 11.31730804 -7.29580688 10.34331055 -7.30644226 9.33979797 C-7.30659332 8.4390152 -7.30674438 7.53823242 -7.30690002 6.6101532 C-7.31134125 5.81517426 -7.31578247 5.02019531 -7.32035828 4.2011261 C-6.77120935 -0.24871527 -3.77543464 0.01822671 0 0 Z " fill="#7C8DC3" transform="translate(774.0798492431641,706.7477569580078)"/>
<path d="M0 0 C4.09616277 -0.47037276 7.92242408 -0.69916551 12 0 C13.96435492 1.81835557 14.83812348 3.47716548 15.9765625 5.88671875 C17.45069333 8.93063013 19.52362041 10.73588152 22 13 C22.2475 12.13375 22.495 11.2675 22.75 10.375 C24.25173905 6.32030457 25.9784662 2.0107669 30 0 C31.70702735 -0.06996014 33.41668003 -0.08440154 35.125 -0.0625 C36.03507813 -0.05347656 36.94515625 -0.04445313 37.8828125 -0.03515625 C38.93082031 -0.01775391 38.93082031 -0.01775391 40 0 C41.15625 1.71313477 41.15625 1.71313477 42 4 C41.09375 6.21069336 41.09375 6.21069336 39.5 8.58984375 C38.943125 9.45673828 38.38625 10.32363281 37.8125 11.21679688 C36.60596846 13.02789433 35.39763931 14.83779556 34.1875 16.64648438 C33.630625 17.51466797 33.07375 18.38285156 32.5 19.27734375 C31.9740625 20.06359131 31.448125 20.84983887 30.90625 21.65991211 C29.71615305 24.0307569 29.71615305 24.0307569 30.77416992 26.67285156 C31.88520935 28.78207838 33.01874851 30.81076725 34.3125 32.8125 C34.745625 33.493125 35.17875 34.17375 35.625 34.875 C36.5573231 36.31586298 37.4950057 37.75326955 38.4375 39.1875 C39.118125 40.239375 39.118125 40.239375 39.8125 41.3125 C40.23144531 41.94800781 40.65039062 42.58351563 41.08203125 43.23828125 C42 45 42 45 42 48 C39.89646505 48.0810206 37.79204048 48.13919907 35.6875 48.1875 C34.51574219 48.22230469 33.34398437 48.25710938 32.13671875 48.29296875 C29 48 29 48 27.25 46.78125 C25.78166248 44.68886904 24.52079135 42.56580009 23.3125 40.3125 C22.87550781 39.50425781 22.43851563 38.69601562 21.98828125 37.86328125 C21.49908203 36.94095703 21.49908203 36.94095703 21 36 C18.28740667 38.33844253 16.6935869 40.40117573 15.375 43.6875 C14 47 14 47 12 48 C9.795636 48.22950319 7.58607827 48.41075933 5.375 48.5625 C4.18648437 48.64628906 2.99796875 48.73007812 1.7734375 48.81640625 C0.85820313 48.87699219 -0.05703125 48.93757812 -1 49 C-0.52680534 42.41642217 2.91248475 38.15565178 6.58203125 32.921875 C9.3419979 28.78885025 9.3419979 28.78885025 10.05078125 23.953125 C8.75574745 20.31355047 7.0387772 17.05195695 5.0625 13.75 C4.70220703 13.12609375 4.34191406 12.5021875 3.97070312 11.859375 C2.47903824 9.31008399 1.09669771 7.09669771 -1 5 C-0.625 2.375 -0.625 2.375 0 0 Z " fill="#7C8DC3" transform="translate(810,707)"/>
<path d="M0 0 C3.69575275 0.3623287 5.34189361 0.92834329 8.1875 3.3125 C11.1875 9.20905172 11.1875 9.20905172 11.1875 12.3125 C10.5275 12.3125 9.8675 12.3125 9.1875 12.3125 C9.31769531 12.90417969 9.44789063 13.49585938 9.58203125 14.10546875 C10.34419264 18.47187001 10.69088738 20.51682317 8.25 24.375 C4.09828655 27.00159423 2.04117423 26.86049548 -2.8125 26.3125 C-3.8025 25.6525 -4.7925 24.9925 -5.8125 24.3125 C-6.09301758 22.09765625 -6.09301758 22.09765625 -5.95703125 19.375 C-5.91126953 18.39789062 -5.86550781 17.42078125 -5.81835938 16.4140625 C-5.75455078 15.39054688 -5.69074219 14.36703125 -5.625 13.3125 C-5.58052734 12.28898438 -5.53605469 11.26546875 -5.49023438 10.2109375 C-4.97419335 0.55268815 -4.97419335 0.55268815 0 0 Z " fill="#000002" transform="translate(577.8125,717.6875)"/>
<path d="M0 0 C5.44736842 0.48421053 5.44736842 0.48421053 7.875 2.75 C9.21745991 5.43491981 9.46774745 7.03759948 9 10 C5.33134759 12.44576827 3.32799657 12.23607254 -1 12 C-1.66 11.67 -2.32 11.34 -3 11 C-3.36923077 4.6 -3.36923077 4.6 -1.5 1.5625 C-1.005 1.046875 -0.51 0.53125 0 0 Z " fill="#000002" transform="translate(739,717)"/>
<path d="M0 0 C7.40640809 -0.4856661 7.40640809 -0.4856661 10.0625 1.6875 C11.24408113 4.6020668 11.00932746 6.04965818 10 9 C8 11 8 11 4.5 11.1875 C1 11 1 11 -1 10 C-1.125 2.25 -1.125 2.25 0 0 Z " fill="#000002" transform="translate(529,718)"/>
<path d="M0 0 C0.99 0 1.98 0 3 0 C3.99 3.96 4.98 7.92 6 12 C3.36 12 0.72 12 -2 12 C-3.15957207 8.52128379 -2.77456651 7.65780355 -1.5625 4.3125 C-1.13130859 3.10013672 -1.13130859 3.10013672 -0.69140625 1.86328125 C-0.46324219 1.24839844 -0.23507812 0.63351562 0 0 Z " fill="#000002" transform="translate(693,724)"/>
</svg>
